<?xml version="1.0" encoding="UTF-8" standalone="no"?>
<!DOCTYPE svg PUBLIC "-//W3C//DTD SVG 1.1//EN" "http://www.w3.org/Graphics/SVG/1.1/DTD/svg11.dtd">
<!-- Created with Vectornator (http://vectornator.io/) -->
<svg height="100%" stroke-miterlimit="10" style="fill-rule:nonzero;clip-rule:evenodd;stroke-linecap:round;stroke-linejoin:round;" version="1.1" viewBox="0 0 248 248" width="100%" xml:space="preserve" xmlns="http://www.w3.org/2000/svg" xmlns:xlink="http://www.w3.org/1999/xlink">
<defs/>
<g id="g8">
<g opacity="1">
<path d="M248 248L0 248L0 0L248 0L248 248" fill="#1b3c7b" fill-rule="nonzero" opacity="1" stroke="none"/>
<path d="M35.3932 124C35.3932 120.763 35.5719 117.565 35.9195 114.419C35.9222 114.395 35.9276 114.346 35.9276 114.346L33.748 114.312C33.748 114.312 33.7427 114.361 33.7401 114.385C33.3982 117.544 33.224 120.753 33.224 124C33.224 135.452 35.4127 146.395 39.3784 156.455C39.3868 156.476 39.4037 156.519 39.4037 156.519L41.9537 157.082C41.9537 157.082 41.9341 157.034 41.9243 157.01C37.7205 146.827 35.3932 135.681 35.3932 124" fill="#ffffff" fill-rule="nonzero" opacity="1" stroke="#ffffff" stroke-linecap="butt" stroke-linejoin="miter" stroke-width="2.33333"/>
<path d="M206.175 94.8225C206.175 94.8225 206.153 94.7605 206.142 94.7295L205.533 93.0411L205.505 92.9636L202.999 92.5417C202.999 92.5417 203.017 92.5882 203.026 92.6114C203.514 93.8648 203.974 95.1325 204.405 96.4138C204.414 96.4389 204.43 96.4891 204.43 96.4891L206.175 94.8225Z" fill="#ffffff" fill-rule="nonzero" opacity="1" stroke="#ffffff" stroke-linecap="butt" stroke-linejoin="miter" stroke-width="2.33333"/>
<path d="M208.318 134.061C208.318 134.061 208.313 134.108 208.31 134.131C208.242 134.719 208.167 135.304 208.087 135.888L208.072 135.992C208.072 135.992 210.023 137.777 209.543 140.411C209.063 143.045 206.472 144.432 206.472 144.432C206.472 144.432 206.458 144.492 206.45 144.522C204.951 150.696 202.79 156.615 200.043 162.195C200.033 162.215 200.012 162.256 200.012 162.256L202.768 161.523C202.768 161.523 202.789 161.478 202.8 161.456C206.732 153.015 209.374 143.86 210.482 134.247C210.485 134.223 210.49 134.174 210.49 134.174L208.318 134.061Z" fill="#ffffff" fill-rule="nonzero" opacity="1" stroke="#ffffff" stroke-linecap="butt" stroke-linejoin="miter" stroke-width="2.33333"/>
<path d="M210.951 119.351C210.951 119.351 210.948 119.301 210.947 119.276C210.815 116.719 210.577 114.189 210.233 111.693C210.23 111.667 210.223 111.617 210.223 111.617L208.327 113.974C208.327 113.974 208.333 114.023 208.336 114.048C208.55 115.905 208.706 117.78 208.8 119.672C208.802 119.7 208.805 119.758 208.805 119.758L210.951 119.351Z" fill="#ffffff" fill-rule="nonzero" opacity="1" stroke="#ffffff" stroke-linecap="butt" stroke-linejoin="miter" stroke-width="2.33333"/>
<path d="M39.342 98.1281C39.342 98.1281 39.3556 98.0846 39.3625 98.0628C50.4154 62.8522 83.3483 37.2333 122.161 37.2333C149.486 37.2333 173.894 49.9349 189.807 69.7439C189.827 69.7683 189.847 69.7928 189.866 69.8172C193.338 71.4784 194.74 72.69 194.74 72.69C194.74 72.69 194.704 72.6404 194.687 72.6156C178.56 49.9071 152.065 35.0613 122.161 35.0613C82.0579 35.0613 48.0691 61.7423 37.0173 98.285C37.0107 98.3069 36.9975 98.3507 36.9975 98.3507L39.342 98.1281Z" fill="#ffffff" fill-rule="nonzero" opacity="1" stroke="#ffffff" stroke-linecap="butt" stroke-linejoin="miter" stroke-width="2.33333"/>
<path d="M191.598 175.94C191.598 175.94 191.564 175.984 191.548 176.007C175.704 197.092 150.503 210.765 122.161 210.765C92.5555 210.765 66.3771 195.855 50.7146 173.16C50.7013 173.14 50.6745 173.101 50.6745 173.101L48.2932 173.486C48.2932 173.486 48.3226 173.53 48.3373 173.551C64.3251 197.293 91.4471 212.937 122.161 212.937C151.427 212.937 177.439 198.722 193.655 176.831C193.674 176.806 193.711 176.756 193.711 176.756L191.598 175.94Z" fill="#ffffff" fill-rule="nonzero" opacity="1" stroke="#ffffff" stroke-linecap="butt" stroke-linejoin="miter" stroke-width="2.33333"/>
<path d="M203.039 106.493C198.203 112.149 192.271 120.447 185.243 131.376L181.612 136.94C173.924 148.884 167.74 157.139 163.052 161.707C160.279 164.36 157.315 166.42 154.153 167.883C150.992 169.347 147.943 170.08 145.021 170.08C139.631 170.08 135.347 168.108 132.167 164.165C128.984 160.223 127.393 154.836 127.393 148.004C127.393 139.925 129.445 131.945 133.544 124.06C135.341 120.599 137.479 117.321 139.909 114.197C143.836 116.837 147.5 118.807 150.855 120.013C154.643 121.38 158.429 122.068 162.197 122.068C166.787 122.068 171.312 121.117 175.797 119.19C180.287 117.262 184.385 114.469 188.12 110.812C191.255 107.805 193.645 104.653 195.284 101.359C196.921 98.064 197.847 94.796 198.049 91.564C198.164 89.7827 198.008 88.1133 197.633 86.5267C197.633 86.5267 197.685 86.5267 197.716 86.5267C201.849 86.5267 205.601 86.996 208.956 87.9267C212.312 88.8693 215.317 90.2747 217.976 92.148C212.661 96.2093 207.688 100.987 203.039 106.493ZM196.243 91.4507C196.076 94.1187 195.263 96.6973 193.815 99.1707C192.361 101.639 190.117 104.176 187.093 106.763C183.101 110.296 178.557 113.024 173.432 114.958C168.312 116.903 163.076 117.862 157.708 117.878C154.631 117.88 151.645 117.352 148.748 116.286C146.385 115.422 143.907 114.121 141.331 112.431C144.115 109.104 147.271 105.968 150.815 103.039C157.14 97.8093 164.419 93.752 172.656 90.8547C180.271 88.188 187.981 86.7667 195.795 86.5667C196.197 88.0467 196.357 89.6707 196.243 91.4507ZM134.904 107.444C134.164 106.703 133.302 105.752 132.325 104.591C141.513 95.564 150.081 88.7667 157.771 84.3293C165.469 79.8867 172.779 77.5453 179.599 77.3707C185.096 77.228 189.309 78.4187 192.26 80.9613C193.484 82.012 194.407 83.2413 195.068 84.616C187.229 85.0587 179.361 86.6587 171.456 89.4493C162.068 92.772 153.229 97.4867 144.932 103.592C142.855 105.124 140.891 106.715 139.039 108.357C138.508 108.757 137.976 109.161 137.445 109.563C136.487 108.889 135.64 108.185 134.904 107.444ZM234.836 84.9333C234.836 84.66 234.795 84.4747 234.719 84.376C234.639 84.2773 234.487 84.192 234.251 84.1133C233.628 84.1133 232.375 84.532 230.505 85.3733C228.625 86.216 226.131 87.4387 223.008 89.0453C219.729 87.484 216.177 86.332 212.355 85.5907C208.528 84.8493 204.229 84.4773 199.469 84.4773C198.651 84.4773 197.836 84.5027 197.016 84.532C196.021 81.9747 194.336 79.6987 191.901 77.7213C187.432 74.0867 181.593 72.3947 174.367 72.5973C166.907 72.8067 159.369 75.1933 151.849 79.6787C144.336 84.1613 136.656 90.8547 129.052 99.692C126.013 94.4627 124.206 88.4693 123.698 81.6973C123.198 74.9213 122.745 71.5533 122.19 71.5747C121.555 71.6827 121.096 71.9573 120.825 72.4187C120.552 72.8733 120.38 73.564 120.307 74.5C120.021 78.2173 120.547 82.644 121.914 87.8107C123.284 92.972 125.206 97.5267 127.635 101.453C122.971 107.543 118.565 114.052 114.458 120.986C110.159 128.314 105.906 136.555 101.805 145.665C103.937 137.751 105.654 129.947 106.94 122.277C108.219 114.611 109.005 107.352 109.234 100.527C109.552 91.3787 108.258 84.352 105.109 79.488C101.974 74.6227 97.3177 72.3107 91.0625 72.496C87.8385 72.5947 84.4792 73.428 80.9948 74.9907C77.5156 76.552 74.2084 78.7053 71.0912 81.4333C67.9713 84.1613 65.5052 87.2973 63.6953 90.852C61.8855 94.3973 60.9401 97.964 60.8489 101.567C60.7448 106.075 61.9349 109.717 64.3672 112.505C66.8021 115.299 70.0183 116.702 73.9844 116.687C76.0469 116.681 78 116.262 79.8568 115.422C81.7084 114.585 83.5312 113.331 85.3464 111.648C88.8932 108.203 90.7188 105.117 90.7943 102.435C90.7265 102.257 90.6511 102.085 90.5729 101.908C90.4297 101.737 90.2317 101.648 90 101.648C89.7631 101.697 89.3125 102.317 88.6615 103.515C84.9505 109.972 80.8776 113.185 76.2787 113.208C73.4765 113.223 71.2448 111.889 69.5989 109.221C67.9609 106.541 67.1823 102.952 67.3203 98.42C67.5131 91.9733 69.8412 86.4467 74.2448 81.78C78.6511 77.1107 83.6693 74.676 89.2084 74.5213C93.3724 74.4053 96.4531 75.996 98.4817 79.3213C100.516 82.648 101.344 87.376 101.078 93.496C100.766 100.595 99.1303 108.223 96.2527 116.307C93.3751 124.396 89.6068 132.017 84.9193 139.131C79.3803 147.552 73.5599 153.761 67.2369 157.827C64.0599 159.881 60.8073 161.36 57.4661 162.263C54.1328 163.169 50.5755 163.571 46.7969 163.472C37.8593 163.239 30.1484 159.967 23.7812 153.748C17.4219 147.528 13.9973 140.057 13.6797 131.236C13.4557 124.811 15.4219 119.448 19.5183 115.087C23.6145 110.729 28.7317 108.495 34.7708 108.447C40.3855 108.396 45.0183 110.352 48.7161 114.348C52.4088 118.344 54.2787 123.405 54.4193 129.481C54.4869 132.451 54.0156 135.145 52.9973 137.541C51.9896 139.94 50.5833 141.688 48.776 142.781C48.2188 143.156 47.4817 143.532 46.5677 143.904C45.3645 144.527 44.7735 145.055 44.7943 145.483C44.8073 145.785 44.8803 145.985 44.9973 146.098C45.1197 146.207 45.414 146.257 45.8803 146.269C49.0521 146.317 52.224 144.088 55.4869 139.536C58.7527 134.984 60.3412 129.986 60.2708 124.575C60.1849 118.569 58.3464 113.573 54.6667 109.639C50.9792 105.697 46.2943 103.787 40.5573 103.849C31.8984 103.948 24.3645 107.405 18.1719 114.108C11.974 120.818 9.04688 128.741 9.48697 137.993C9.90885 146.748 13.1302 153.879 18.9584 159.475C24.7917 165.069 32.1093 168.036 40.8073 168.288C49.2552 168.532 58.0208 165.81 67.2969 159.951C76.5755 154.091 84.7891 146.039 92.2031 135.744C95.4973 131.056 98.3907 125.849 100.927 120.13C102.26 117.16 103.471 114.124 104.578 111.031C105.685 107.937 106.654 104.808 107.5 101.639C107.365 105.733 107.016 110.049 106.456 114.587C105.893 119.125 105.208 123.638 104.404 128.122C102.786 136.955 100.802 144.688 98.3464 151.312C95.6823 154.485 93.5885 157.549 92.0677 160.495C90.5443 163.448 89.8541 165.751 89.9869 167.419C90.0521 168.3 90.3828 169.049 90.9688 169.684C91.5599 170.312 92.2369 170.64 93.0104 170.659C94.5521 170.707 95.9401 169.372 97.1979 166.631C98.4584 163.886 99.474 159.929 100.313 154.728C103.781 146 108.143 137.575 113.354 129.425C118.565 121.279 124.497 113.568 131.109 106.293C131.862 107.119 132.617 107.947 133.372 108.781C134.213 109.563 135.052 110.349 135.888 111.139C135.521 111.569 135.18 112.003 134.823 112.436C131.167 116.241 128.031 120.313 125.464 124.668C120.779 132.619 118.435 140.491 118.435 148.297C118.435 155.521 120.622 161.336 124.995 165.748C129.365 170.156 135.123 172.364 142.265 172.364C149.643 172.364 156.541 169.849 162.964 164.829C169.383 159.805 176.927 150.669 185.596 137.419L191.563 128.158C203.901 109.293 213.364 97.78 219.967 93.6133C221.721 95.4467 222.959 97.224 223.683 98.94C224.404 100.657 224.765 102.591 224.765 104.737C224.765 110.552 223.143 115.461 219.904 119.463C216.667 123.465 212.721 125.464 208.081 125.464C207.844 125.425 207.453 125.307 206.907 125.114C206.752 125.075 206.412 125.014 205.88 124.936C205.355 124.859 204.852 124.76 204.388 124.643C203.997 124.643 203.609 124.643 203.219 124.643C202.005 124.643 201.063 124.869 200.377 125.316C199.695 125.766 199.355 126.381 199.355 127.161C199.355 127.943 199.568 128.517 199.997 128.888C200.424 129.259 201.052 129.444 201.872 129.444C202.651 129.444 203.685 129.328 204.972 129.094L209.427 128.158C213.133 128.625 216.044 130.168 218.151 132.782C220.26 135.397 221.309 138.679 221.309 142.62C221.309 145.976 220.412 149.488 218.62 153.157C216.823 156.828 214.521 159.912 211.708 162.404C209.599 164.283 207.484 165.696 205.355 166.653C203.227 167.61 201.107 168.09 199.003 168.09C195.568 168.09 192.872 167.317 190.921 165.775C188.972 164.235 187.995 162.155 187.995 159.541C187.995 156.575 188.86 153.745 190.601 151.049C192.333 148.357 194.825 145.995 198.063 143.967C199.511 143.029 201.133 142.191 202.927 141.448C204.721 140.705 205.617 140.219 205.617 139.985C205.541 139.632 205.445 139.398 205.331 139.283C205.211 139.165 205.101 139.086 205.008 139.048C204.907 139.01 204.817 138.972 204.74 138.929C203.997 138.929 202.748 139.223 200.995 139.808C199.081 140.512 197.417 141.253 196.016 142.033C192.653 143.907 190.099 146.231 188.347 149C186.591 151.773 185.711 154.72 185.711 157.843C185.711 162.135 187.235 165.628 190.279 168.322C193.328 171.016 197.305 172.364 202.224 172.364C206.011 172.364 209.472 171.7 212.617 170.372C215.755 169.044 218.713 167.055 221.487 164.398C226.948 159.053 229.683 152.964 229.683 146.132C229.683 141.409 228.079 137.351 224.88 133.955C221.68 130.553 217.289 128.215 211.708 126.929C218.695 125.289 224.123 122.577 227.981 118.791C231.852 115.003 233.784 110.612 233.784 105.617C233.784 102.413 232.989 99.488 231.409 96.832C229.828 94.1787 227.576 92.0133 224.648 90.3347C226.601 89.276 228.784 88.2493 231.205 87.252C233.628 86.248 234.836 85.4813 234.836 84.9333" fill="#ffffff" fill-rule="nonzero" opacity="1" stroke="#ffffff" stroke-linecap="butt" stroke-linejoin="miter" stroke-width="2.33333"/>
</g>
</g>
</svg>
