<svg viewBox="0 0 280.819 93.7719" xmlns="http://www.w3.org/2000/svg">
	<g fill="#61DAFB">
		<path d="M16.8335 52.3898C20.5295 52.6098 23.4775 51.8178 25.4575 50.4538C27.4375 49.0898 30.3415 46.8898 27.6135 44.2058C26.6455 43.2378 23.4775 41.4338 19.8255 40.9498C19.1215 40.8618 19.1215 40.3778 19.8695 40.2458C23.7855 39.5858 30.7375 37.9138 35.2695 34.8338C39.0095 32.3258 40.0655 28.3218 36.0175 25.5058C29.8135 21.1938 22.8615 20.7978 14.8975 20.6658C14.1495 20.6658 2.53347 20.9738 0.333474 24.9338C-1.03053 27.3538 2.22547 29.2458 4.20547 30.4778C5.26147 31.1378 5.30547 30.4338 4.42547 29.9498C3.36947 29.3778 0.597474 27.2658 1.52147 25.4618C3.89747 20.7978 13.3575 21.4138 14.9855 21.4578C22.1135 21.5898 29.8135 22.4258 35.2695 26.5178C38.9215 29.2458 36.8095 32.5018 34.6095 34.3058C31.1775 37.1658 21.5855 39.4098 19.0775 39.8498C20.4415 37.7818 25.7655 29.6418 26.2055 27.1338C26.5135 25.3298 22.9935 27.2658 23.6975 27.3978C24.4895 27.5298 24.0935 28.8058 23.8295 29.3338C22.6415 31.8858 20.1775 36.3738 17.5375 39.9818C16.7895 40.2018 15.5575 40.2898 15.0295 40.3338C14.6335 40.3778 14.4575 41.2138 15.4255 41.5658C15.8215 41.7418 16.0855 41.7858 16.4815 41.8738C14.5455 44.8218 10.8055 50.6738 10.0575 53.0498C9.61747 54.4578 10.1015 54.2818 10.6295 53.1378C12.1255 49.8378 16.9655 42.8858 17.7135 42.0058C19.6055 42.2698 24.5335 43.3698 26.0735 44.5578C28.4495 46.3178 27.2615 49.0018 25.1495 49.9698C22.7295 51.0698 19.4735 51.5978 16.5255 51.5098C15.7775 51.4658 14.9415 52.2578 16.8335 52.3898Z" fill="#ffffff" fill-rule="evenodd" opacity="1" stroke="none"/>
		<path d="M51.1975 38.9698C51.5935 38.3978 51.0215 36.2858 49.9215 37.2978C46.3575 40.4218 40.5055 47.6378 35.8855 50.4098C34.4335 51.2458 33.5095 50.5858 34.2135 48.2098C35.0935 45.0858 38.7895 39.3218 41.4295 36.0218C42.5295 34.6578 40.8575 34.5258 40.2415 35.2298C38.0415 37.8258 32.4975 45.6578 32.1895 49.7938C32.1015 51.2458 33.2015 52.5658 34.7855 52.0378C36.6335 51.4218 43.4535 44.8218 46.3135 42.0058C47.3695 40.9498 47.7215 41.8298 47.3695 42.7098C46.5335 44.6898 45.3015 47.3298 45.3015 49.6178C45.3015 50.7618 46.7535 52.0378 47.5015 51.8178C48.2495 51.5538 52.1655 48.8258 52.7815 48.2098C53.4855 47.5058 53.3975 46.8458 52.4735 47.4618C52.1215 47.6818 48.4255 50.2338 48.0295 50.3658C47.1935 50.5858 46.1815 50.9378 46.5335 48.8258C46.9295 46.4498 49.5695 41.4338 51.1975 38.9698Z" fill="#ffffff" fill-rule="evenodd" opacity="1" stroke="none"/>
		<path d="M51.7255 52.4778C40.8575 54.5898 10.5415 62.5978 5.34947 74.6978C1.96147 82.5738 11.8615 91.8138 21.5855 91.1978C38.3935 90.0978 48.4255 66.3818 53.0895 53.0058C57.8855 51.9498 66.3335 51.6858 69.3695 51.9938C70.9095 52.1258 71.8775 52.9618 71.3935 54.5458C71.0415 55.6458 70.0735 57.0538 68.9295 58.1098C68.2695 58.7698 68.4455 59.0338 69.2375 58.4178C70.4255 57.4498 71.3495 56.8778 72.0975 55.5138C73.0655 53.7098 70.9535 51.5538 69.4575 51.2458C66.5535 50.6738 58.8535 51.2458 53.3975 52.2138C54.7615 48.4298 56.6535 42.2258 57.4455 40.1578C57.7095 39.8058 57.8855 39.4538 57.9295 39.1018C57.9735 38.5738 57.5335 38.3098 56.8735 38.4858C56.3455 38.6618 55.3335 39.4098 55.2455 40.0698C55.6415 40.4658 53.0015 49.5738 51.7255 52.4778ZM6.40547 75.8858C10.5855 65.2378 33.1575 56.9658 51.5495 53.1818C48.9975 61.0138 38.0855 89.7458 21.4975 90.4058C11.7735 90.8018 3.67747 82.7498 6.40547 75.8858ZM59.9535 33.2498C60.1735 32.7218 59.3815 32.0618 58.8095 32.1938C58.3695 32.2818 57.8415 32.6778 57.1815 33.3818C56.4775 34.0858 56.1695 34.6138 56.1695 35.0098C56.1695 35.4058 56.4775 35.6258 57.0935 35.7578C57.5335 35.8898 58.0615 35.5818 58.7655 34.9658C59.4695 34.3058 59.8655 33.7338 59.9535 33.2498Z" fill="#ffffff" fill-rule="evenodd" opacity="1" stroke="none"/>
		<path d="M57.6215 50.9818C58.8095 50.7178 59.5575 50.4098 59.8655 50.0138C63.2975 46.0098 66.6415 42.7978 69.9415 40.4658C70.1615 40.3338 70.3815 40.2458 70.6455 40.2458C71.1735 40.2458 71.4375 40.4658 71.4375 40.9498C71.4375 41.0818 71.3935 41.2578 71.3055 41.3898C69.5895 43.7218 68.1375 46.2298 66.7735 48.9138C65.1455 52.1258 64.1775 54.8098 64.0015 56.8778C63.8695 58.7258 64.1775 60.0898 65.0135 61.0138C65.7615 61.7618 66.7295 62.1138 67.9175 61.9818C71.1735 61.6298 74.2095 60.0898 77.0695 57.2738C79.1375 55.2058 80.5015 53.3578 81.0295 51.6418C81.2055 51.1138 81.2935 50.6738 81.2935 50.3658C81.2935 49.7058 81.0295 49.3538 80.5455 49.3538C80.1495 49.3538 79.4895 49.6178 79.4895 49.9698C79.4895 50.2778 80.8095 49.8378 80.8095 51.0698C80.8095 52.5218 79.4015 54.4138 76.6295 56.7898C74.1215 58.9018 72.0095 60.2218 70.3375 60.7058C69.8975 60.8378 69.5015 60.8818 69.0615 60.8818C68.0495 60.8818 67.2575 60.5738 66.6415 59.9138C65.9815 59.2098 65.7175 58.1538 65.8055 56.7898C65.9815 54.7218 66.8175 51.9498 68.4015 48.5178C70.0295 45.0858 71.9215 41.9618 74.0335 39.2778C74.4735 38.7498 74.4735 38.3978 74.0775 38.2658C73.7255 38.0898 73.1975 38.1338 72.5375 38.4418C72.1415 38.5738 71.7895 38.8378 71.4375 39.1458C70.7335 39.4098 69.2375 40.4218 66.9935 42.2258C65.1015 43.7658 63.2975 45.3058 61.6695 46.8898C61.4935 47.1098 61.2735 47.1978 61.1415 47.1978C60.9215 47.1978 60.7895 47.0658 60.7895 46.7138C60.7895 46.5378 60.8335 46.3178 60.9655 46.1418C62.1095 43.5458 63.7375 40.9498 65.9375 38.3978C66.0255 38.3098 66.0695 38.1778 66.0695 38.0898C66.0255 38.0458 65.9375 38.0458 65.7615 38.0898C65.1455 38.1778 64.8375 38.3978 64.6615 38.6618C63.5175 40.0698 62.1535 41.9178 60.6135 44.2498C59.0295 46.6698 57.8855 48.6058 57.1815 50.1018C57.0055 50.4538 56.9615 50.6738 57.0935 50.8058C57.1375 50.9818 57.3135 51.0258 57.6215 50.9818Z" fill="#ffffff" fill-rule="evenodd" opacity="1" stroke="none"/>
		<path d="M82.7895 48.6058C83.4495 47.9458 83.5375 47.0658 82.5255 48.0778C80.9415 49.5738 79.3575 50.6738 77.1575 51.2018C76.0135 51.4658 74.2975 51.4658 75.7495 48.5178C77.8615 44.1618 74.6495 50.1898 80.6335 38.8818C81.7775 36.7258 79.1375 36.3738 78.9175 37.7818C78.7855 38.5298 74.1655 46.8458 74.1215 49.7058C74.0775 51.8618 76.7615 52.6538 77.4215 52.3458C79.9735 51.2018 81.3815 50.0138 82.7895 48.6058ZM83.5375 32.7218C83.7135 32.1938 82.9655 31.5338 82.3495 31.6658C81.9095 31.7538 81.3815 32.1498 80.7215 32.8538C80.0175 33.5578 79.7095 34.0858 79.7095 34.4818C79.7095 34.8338 80.0175 35.0978 80.6775 35.2298C81.1175 35.3178 81.6455 35.0538 82.3055 34.4378C83.0535 33.7778 83.4495 33.2058 83.5375 32.7218Z" fill="#ffffff" fill-rule="evenodd" opacity="1" stroke="none"/>
		<path d="M95.9455 38.2218C97.6615 35.8018 95.5935 33.8658 93.3495 34.5698C89.1695 35.8458 82.2175 43.0178 81.9095 49.3978C81.7775 51.7298 84.5935 53.7098 86.3095 53.4018C88.5095 53.0058 90.9735 51.5098 92.2055 50.6298C92.6895 50.2778 92.3815 50.0138 91.8975 50.3218C90.2695 51.2458 87.8495 52.2138 85.9135 52.4338C84.4175 52.5658 82.7895 51.9938 82.9655 49.3978C83.1415 46.6258 84.9455 44.0298 86.2655 42.2258L86.7935 41.5218C88.7735 39.3218 91.0615 37.1218 93.2175 35.8898C94.9775 34.9218 96.3415 36.1098 94.8895 37.8258C93.7455 39.1458 95.2855 39.1458 95.9455 38.2218Z" fill="#ffffff" fill-rule="evenodd" opacity="1" stroke="none"/>
		<path d="M106.813 34.3938C118.253 34.3938 129.869 31.6218 141.661 26.0778C144.873 24.5818 147.293 22.7778 148.921 20.5778C150.417 18.6418 151.165 16.6178 151.165 14.4618C151.165 11.6018 149.977 9.09382 147.601 7.06982C145.093 4.95782 141.925 3.94582 138.141 3.94582C135.941 3.94582 133.653 4.34182 131.321 5.13382C122.829 8.12582 114.513 15.6498 106.373 27.8818C103.557 28.5418 101.357 29.5978 99.9055 31.1378C99.7295 31.3138 99.5975 31.5778 99.5975 31.9298C99.5975 32.7218 100.389 33.8218 101.181 33.9978C101.709 34.0858 102.149 34.1298 102.457 34.1738L102.633 34.1738C101.401 36.1538 99.9935 38.6178 98.3655 41.3898C97.5735 41.2138 96.8695 42.1378 97.3535 43.6338C96.4735 45.3058 95.3735 48.1218 93.7895 52.0818C93.7455 52.2138 93.7455 52.3018 93.7455 52.4338C93.8775 52.8738 93.9655 53.1378 94.1855 53.1378C94.3175 53.1378 94.4055 53.0498 94.4495 52.9178C95.9015 49.3978 97.0895 46.6698 98.2775 44.7778C105.273 53.4458 111.389 58.5058 116.757 59.9578C117.153 60.0458 117.813 60.3538 119.045 60.4858C120.321 60.6618 121.069 60.7058 121.201 60.6178C122.433 59.8258 123.137 58.6818 123.577 57.6698C123.533 57.5378 123.533 57.3618 123.489 57.3178C123.401 57.2738 123.269 57.3618 123.181 57.5378C122.477 59.1218 121.069 59.9138 119.133 59.9138C118.693 59.9138 118.209 59.8258 117.769 59.6938C114.953 58.8578 111.653 56.7458 107.957 53.3138C104.525 50.1458 102.061 47.0658 100.345 44.0738C102.457 44.0738 104.701 43.5458 106.945 42.5338C109.365 41.4338 110.993 40.2018 111.741 38.6618C112.181 37.7378 112.313 37.0338 112.313 36.5058C112.225 35.8458 111.785 35.4938 110.905 35.4938C108.881 35.4938 105.141 37.4738 99.5535 41.5218C101.445 38.3978 102.765 36.1098 103.513 34.6138C103.733 34.5258 104.041 34.4378 104.261 34.3498C105.097 34.3938 105.977 34.3938 106.813 34.3938ZM104.261 33.5578C112.753 19.0818 121.817 9.79782 131.629 5.70582C133.609 4.86982 135.677 4.42982 137.921 4.42982C141.177 4.42982 144.037 5.30982 146.501 7.02582C148.965 8.74182 150.197 10.8538 150.197 13.3618C150.197 17.2778 147.161 21.0618 141.045 24.5818C135.325 27.8818 129.165 30.3018 122.521 31.8858C117.329 33.1178 112.357 33.6458 107.517 33.6458C106.329 33.6458 105.273 33.6018 104.261 33.5578ZM107.517 41.5658C106.769 42.1378 105.625 42.6218 104.217 43.0618C102.897 43.5018 101.709 43.6778 100.785 43.6778C100.521 43.6778 100.345 43.6778 100.213 43.6338C99.8615 43.0618 99.6855 42.6218 99.5975 42.3138C100.257 41.6098 101.489 40.5978 103.381 39.3658C105.581 37.9138 107.209 37.1218 108.089 36.9898C109.013 36.8578 109.541 37.2538 109.585 38.0458C109.629 39.2778 109.013 40.4218 107.517 41.5658ZM102.897 33.4698C102.721 33.4698 102.237 33.3818 101.401 33.2498C100.785 33.1178 100.433 32.8978 100.433 32.4138C100.433 32.1058 100.521 31.7978 100.785 31.5778C101.929 30.2138 103.689 29.1138 106.109 28.3658C105.053 30.0378 103.997 31.7098 102.897 33.4698Z" fill="#ffffff" fill-rule="evenodd" opacity="1" stroke="none"/>
		<path d="M110.817 51.4658C112.709 50.3658 114.909 48.7378 117.461 46.5818C120.013 44.3818 121.993 42.4898 123.401 40.8178C123.445 40.7738 123.489 40.7298 123.533 40.7298C123.797 40.7298 123.797 40.8618 123.577 41.2138C122.565 42.7098 121.597 44.5578 120.629 46.6698C119.045 50.1458 117.109 56.4378 117.021 58.9018C116.977 60.3978 117.373 61.6298 118.473 62.3338C119.397 62.9058 120.585 63.4778 121.993 63.4778C122.917 63.4778 123.753 63.3018 124.545 63.0378C126.173 62.4658 128.153 61.1458 130.573 59.1658C133.169 56.9658 135.105 54.6338 136.425 52.6538C136.557 52.4338 136.601 52.3018 136.601 52.1698C136.601 52.1258 136.601 52.0818 136.557 52.0378C136.425 52.0378 136.293 52.1698 136.029 52.4778C134.621 54.2818 132.685 56.4378 130.309 58.3738C127.845 60.3538 125.821 61.6298 124.237 62.1578C123.225 62.5098 122.125 62.6858 121.113 62.6858C119.001 62.6858 117.681 61.7178 117.681 59.7378C117.681 59.4738 117.681 59.2098 117.725 58.9018C118.253 55.5138 120.629 48.4298 123.093 44.2938C124.677 41.6978 126.393 39.1018 128.065 36.5058C128.109 36.3738 127.889 35.9778 127.669 35.9778C127.581 35.9778 127.449 36.0218 127.405 36.0658C127.141 36.3738 126.745 36.5498 126.261 36.6378C126.129 36.6818 125.865 36.6378 125.425 36.5938C124.721 36.3738 124.017 36.1978 123.313 36.1978C122.653 36.1978 122.037 36.3298 121.509 36.5498C119.221 37.4298 116.581 39.3218 113.589 42.2698C110.333 45.5258 108.705 48.2098 108.705 50.2778C108.705 51.3338 109.057 51.8178 109.805 51.8178C110.157 51.8178 110.465 51.6858 110.817 51.4658ZM111.521 47.7258C112.357 45.8338 113.721 43.7658 115.701 41.5658C117.769 39.2778 119.529 37.9138 120.937 37.5618C121.289 37.4738 121.597 37.4298 121.949 37.4298C123.137 37.4298 123.973 38.0898 123.973 38.7498C123.973 38.8818 123.929 38.9698 123.841 39.0578C119.705 43.9858 116.053 47.5058 112.797 49.5738C112.577 49.7058 112.313 49.7938 112.137 49.7938C111.609 49.7938 111.345 49.4858 111.345 48.7378C111.345 48.4298 111.389 48.0778 111.521 47.7258Z" fill="#ffffff" fill-rule="evenodd" opacity="1" stroke="none"/>
		<path d="M128.373 44.7338L134.841 44.7338C135.589 44.7338 135.985 44.4258 135.985 43.9858C135.985 43.7218 135.765 43.5458 135.237 43.5458L129.033 43.5458C128.109 43.5458 127.625 43.8098 127.625 44.3378C127.625 44.6018 127.845 44.7338 128.373 44.7338Z" fill="#ffffff" fill-rule="evenodd" opacity="1" stroke="none"/>
		<path d="M153.541 20.9738C167.797 25.6818 169.821 39.2778 159.437 47.5498C153.585 52.2578 142.101 54.6338 139.681 50.4538C139.241 49.6618 139.241 48.4298 139.593 47.5938C141.441 43.1498 150.593 29.3338 153.937 25.1098C154.553 24.3178 152.837 24.3178 152.177 25.0658C149.229 28.4098 142.761 38.8378 139.197 46.0978C139.109 46.3178 139.285 46.2738 139.065 46.2738C137.789 46.3618 137.437 47.1978 138.009 48.6058C138.141 49.0018 138.141 48.9578 138.053 49.2658C137.569 50.6298 136.953 52.2138 136.733 53.4018C136.513 54.6338 137.173 54.5458 137.349 53.5338C137.613 52.3018 137.965 51.5098 138.317 50.5858C138.581 50.0578 138.713 50.1018 138.933 50.5858C141.925 57.5378 155.521 51.4658 159.921 48.2538C171.933 39.4098 170.393 24.8458 154.113 19.5658C147.249 17.3658 127.097 17.6738 125.117 28.3218C124.457 32.0178 126.525 35.7138 130.485 39.5418C131.629 40.5978 132.113 40.1138 131.057 38.9698C128.857 36.5058 124.941 31.9298 126.525 27.3098C129.649 18.1138 146.809 18.7298 153.541 20.9738Z" fill="#ffffff" fill-rule="evenodd" opacity="1" stroke="none"/>
		<path d="M186.145 39.8058C186.453 39.4098 186.101 39.2338 185.837 39.6298C185.133 40.2458 183.725 41.0378 182.493 41.1698C180.601 41.3898 177.037 41.3898 173.825 41.3898C176.729 40.9498 179.193 39.7618 180.117 38.1338C181.085 36.4178 179.677 33.3818 177.477 34.2178C173.385 35.7578 166.389 42.8858 166.081 49.3098C165.993 51.5978 168.721 53.6218 170.481 53.3138C172.637 52.9178 175.145 51.4218 176.377 50.5418C176.861 50.1898 176.509 49.9698 176.025 50.2338C174.441 51.1578 172.021 52.1258 170.085 52.3458C168.589 52.5218 167.005 51.9058 167.137 49.3098C167.313 46.5378 169.117 43.8978 170.437 42.1378C173.957 42.1378 180.513 42.1378 182.493 41.8298C184.121 41.6098 185.573 40.4218 186.145 39.8058ZM179.061 37.7378C177.653 39.8498 174.001 41.3898 170.921 41.3898C172.901 39.2338 175.233 37.0338 177.389 35.8018C179.149 34.8338 180.293 35.8458 179.061 37.7378Z" fill="#ffffff" fill-rule="evenodd" opacity="1" stroke="none"/>
		<path d="M178.929 50.9818C180.117 50.7178 180.865 50.4098 181.173 50.0138C184.605 46.0098 187.949 42.7978 191.249 40.4658C191.469 40.3338 191.689 40.2458 191.953 40.2458C192.481 40.2458 192.745 40.4658 192.745 40.9498C192.745 41.0818 192.701 41.2578 192.613 41.3898C190.897 43.7218 189.445 46.2298 188.081 48.9138C186.453 52.1258 185.485 54.8098 185.309 56.8778C185.177 58.7258 185.485 60.0898 186.321 61.0138C187.069 61.7618 188.037 62.1138 189.225 61.9818C192.481 61.6298 195.517 60.0898 198.377 57.2738C200.445 55.2058 201.809 53.3578 202.337 51.6418C202.513 51.1138 202.601 50.6738 202.601 50.3658C202.601 49.7058 202.337 49.3538 201.853 49.3538C201.457 49.3538 200.797 49.6178 200.797 49.9698C200.797 50.2778 202.117 49.8378 202.117 51.0698C202.117 52.5218 200.709 54.4138 197.937 56.7898C195.429 58.9018 193.317 60.2218 191.645 60.7058C191.205 60.8378 190.809 60.8818 190.369 60.8818C189.357 60.8818 188.565 60.5738 187.949 59.9138C187.289 59.2098 187.025 58.1538 187.113 56.7898C187.289 54.7218 188.125 51.9498 189.709 48.5178C191.337 45.0858 193.229 41.9618 195.341 39.2778C195.781 38.7498 195.781 38.3978 195.385 38.2658C195.033 38.0898 194.505 38.1338 193.845 38.4418C193.449 38.5738 193.097 38.8378 192.745 39.1458C192.041 39.4098 190.545 40.4218 188.301 42.2258C186.409 43.7658 184.605 45.3058 182.977 46.8898C182.801 47.1098 182.581 47.1978 182.449 47.1978C182.229 47.1978 182.097 47.0658 182.097 46.7138C182.097 46.5378 182.141 46.3178 182.273 46.1418C183.417 43.5458 185.045 40.9498 187.245 38.3978C187.333 38.3098 187.377 38.1778 187.377 38.0898C187.333 38.0458 187.245 38.0458 187.069 38.0898C186.453 38.1778 186.145 38.3978 185.969 38.6618C184.825 40.0698 183.461 41.9178 181.921 44.2498C180.337 46.6698 179.193 48.6058 178.489 50.1018C178.313 50.4538 178.269 50.6738 178.401 50.8058C178.445 50.9818 178.621 51.0258 178.929 50.9818Z" fill="#ffffff" fill-rule="evenodd" opacity="1" stroke="none"/>
		<path d="M197.321 76.5018C201.237 76.5018 205.681 74.1258 210.741 69.5498C215.757 65.0178 218.617 60.7938 219.145 56.9218C219.233 56.2618 218.749 55.2058 217.913 53.9298C217.033 52.6098 216.197 52.0378 215.229 52.0378C215.053 52.0378 214.877 52.0378 214.701 52.0818C213.161 52.6978 212.765 52.9618 212.501 53.4458C212.457 53.6658 212.589 53.8418 212.853 53.8418C213.161 53.8418 213.821 53.2698 214.701 53.1378C216.637 52.8298 217.649 54.0618 217.649 56.7898C217.165 59.9138 215.053 63.4778 211.269 67.4818C207.485 71.4858 203.877 74.0378 200.225 75.1818C198.905 75.6218 197.805 75.7538 196.793 75.7538C193.185 75.7538 191.381 73.2018 191.381 68.0978C191.381 67.3938 191.381 66.7338 191.425 65.9858C191.909 60.5738 194.241 53.6658 198.333 45.3498C200.929 40.0698 203.701 35.7578 206.781 31.1818C207.001 30.8298 207.397 30.5658 207.881 30.4778C213.337 30.2138 217.649 29.9058 220.993 29.7738C221.521 29.7298 221.873 28.9818 221.873 28.8938C221.785 28.8058 221.653 28.7618 221.345 28.7618C220.861 28.7618 218.969 28.7178 215.537 28.7178L209.157 28.7178C208.497 28.7178 208.409 28.3218 208.849 27.7058C215.229 18.9498 219.761 14.3298 222.533 13.7578C222.841 13.6698 222.973 13.6258 222.973 13.4498C222.973 13.2298 222.841 13.0538 222.489 13.0538C221.785 13.0538 221.389 13.3178 219.981 13.8018C218.573 14.3298 217.737 14.6818 217.517 14.9458C213.513 19.6098 209.597 23.9658 206.825 28.3218C206.693 28.4978 207.045 28.7178 206.825 28.7178C204.053 28.7178 202.425 28.8938 202.249 29.2458C202.029 29.6858 202.381 30.1698 203.481 30.6098C204.053 30.9178 204.273 31.3138 204.273 31.8418C204.273 32.3258 204.141 32.7218 203.745 33.1618C200.753 37.4738 197.717 42.9298 194.769 49.7058C191.425 57.3618 189.709 63.3018 189.709 67.4818C189.709 69.9898 189.973 72.1458 191.513 73.8618C193.053 75.5338 194.989 76.5018 197.321 76.5018Z" fill="#ffffff" fill-rule="evenodd" opacity="1" stroke="none"/>
		<path d="M203.789 51.2458C203.789 49.7058 203.657 48.7818 203.437 48.5618C203.349 48.5178 203.261 48.4738 203.173 48.4738C202.601 48.4738 201.369 49.0458 201.193 49.3538C201.061 49.5298 201.105 49.9698 201.193 50.6738C201.413 52.0378 201.545 52.0818 201.897 52.0818C202.645 52.0818 203.789 51.5978 203.789 51.2458Z" fill="#ffffff" fill-rule="evenodd" opacity="1" stroke="none"/>
		<path d="M204.053 59.2538C202.777 62.1138 201.457 65.1058 200.181 67.8778C197.805 73.2018 195.209 77.6018 192.701 81.2098C189.269 86.2258 185.881 89.6138 182.625 91.3738C180.953 92.2978 179.149 92.7378 177.301 92.7378C174.397 92.7378 171.845 91.7258 169.689 89.5698C167.445 87.3258 166.301 84.7738 166.301 81.6058C166.301 76.6338 169.029 71.9698 174.309 67.3938C179.105 63.3018 184.913 60.2218 191.777 58.1538C196.573 56.7458 201.017 55.9978 205.461 55.9538C204.889 57.2738 204.449 58.3738 204.053 59.2538ZM209.465 56.0858C210.917 56.2178 211.445 56.8778 211.445 57.9338C211.445 59.2098 210.609 60.6618 208.849 62.2898C208.541 62.5098 208.409 62.6858 208.409 62.8618C208.409 62.9058 208.453 62.9058 208.497 62.9058C208.673 62.9058 208.849 62.8178 209.157 62.5538C210.653 61.3658 211.621 60.3978 212.017 59.6498C212.149 59.3858 212.237 59.0338 212.237 58.6818C212.237 57.1858 211.137 55.6898 209.377 55.4258C208.585 55.2938 207.705 55.2938 206.781 55.2938C210.697 47.0218 213.293 44.2058 215.493 40.4218C217.693 39.2778 219.409 38.6618 220.773 38.6618C222.533 38.6618 223.413 39.4538 223.413 41.0378C223.413 42.8418 222.665 44.6458 221.169 46.3618C215.581 48.2098 212.369 49.3538 211.621 49.8378C211.489 49.9698 211.445 50.1018 211.445 50.2778C211.445 50.9378 211.753 51.2018 212.369 51.1138C216.197 50.7178 219.321 49.2658 221.741 47.0218C224.689 46.0098 227.241 45.2178 229.309 44.6458C229.441 44.6018 229.529 44.5578 229.617 44.4698C229.661 44.4258 229.661 44.3818 229.617 44.3378C229.529 44.2938 229.441 44.2938 229.309 44.3378C228.737 44.3818 226.713 44.8658 223.149 45.7898C224.513 43.8978 225.173 42.1818 225.173 40.6858C225.173 38.7498 224.117 37.7818 222.005 37.7818C220.509 37.7818 218.617 38.1778 216.241 39.1018C218.485 35.2738 217.561 36.5498 219.321 33.9978C219.673 33.4698 219.849 33.5578 219.849 33.3378C219.849 33.1178 219.673 33.0738 219.277 33.2058C218.397 33.5578 217.869 33.8218 217.693 34.0858C214.657 38.6618 215.361 37.6498 213.909 39.8938C212.501 40.4658 211.753 40.9938 211.577 41.4778C211.489 41.8298 211.753 42.2698 212.325 42.7978C211.049 45.0858 209.861 47.4178 208.585 49.6618C207.221 52.0378 206.781 53.1818 205.681 55.2938C200.709 55.3378 195.781 56.1738 190.677 57.5378C183.505 59.4738 177.521 62.5978 172.769 66.7338C168.061 70.7818 165.773 75.4018 165.773 80.6378C165.773 84.2458 166.829 87.2818 169.029 89.8778C171.141 92.4298 173.825 93.7058 176.993 93.7058C178.973 93.7058 180.997 93.1778 183.021 92.0778C190.589 87.9418 198.069 77.0738 205.153 59.4298C205.637 58.2418 206.077 57.0538 206.561 55.9538C207.617 55.9538 208.189 55.8658 209.465 56.0858Z" fill="#ffffff" fill-rule="evenodd" opacity="1" stroke="none"/>
		<path d="M227.769 48.1218C227.945 53.5778 232.301 53.6658 236.393 50.0138C236.833 49.6178 237.141 48.8258 236.041 49.6178C233.225 51.6418 229.441 52.6538 229.573 47.1538C229.661 44.7778 230.409 41.4778 231.377 38.7498C240.265 37.0778 248.889 34.6138 257.249 31.4458C269.481 26.7818 276.961 21.8538 279.733 16.5738C280.261 15.5178 280.613 14.4178 280.701 13.3178C281.053 9.79782 279.513 6.67382 276.213 3.90182C273.001 1.12982 269.217-0.190177 264.949 0.0738231C252.497 0.821823 240.881 13.5378 230.013 38.1778L230.013 38.3098C228.561 41.6978 227.637 45.0858 227.769 48.1218ZM278.809 15.3858C276.433 20.2698 270.229 24.9338 260.197 29.3338C251.837 32.9858 242.289 35.8898 231.597 38.0898C231.773 37.7818 231.861 37.5178 231.993 37.2098L231.949 37.2098C235.161 29.7298 238.945 22.9538 243.345 16.7938C250.693 6.54182 257.909 1.12982 264.949 0.865823C269.129 0.689823 272.693 1.87782 275.641 4.34182C278.545 6.71782 279.909 9.48982 279.557 12.5698C279.469 13.5378 279.249 14.4618 278.809 15.3858Z" fill="#ffffff" fill-rule="evenodd" opacity="1" stroke="none"/>
	</g>
</svg>
