<svg viewBox="0 0 280.819 93.7719" xmlns="http://www.w3.org/2000/svg"><g fill="#fff" fill-rule="evenodd"><path d="m16.8335 52.3898c3.696.22 6.644-.572 8.624-1.936s4.884-3.564 2.156-6.248c-.968-.968-4.136-2.772-7.788-3.256-.704-.088-.704-.572.044-.704 3.916-.66 10.868-2.332 15.4-5.412 3.74-2.508 4.796-6.512.748-9.328-6.204-4.312-13.156-4.708-21.12-4.84-.748 0-12.36403.308-14.564026 4.268-1.364004 2.42 1.891996 4.312 3.871996 5.544 1.056.66 1.1-.044.22-.528-1.056-.572-3.827996-2.684-2.904-4.488 2.376-4.664 11.83603-4.048 13.46403-4.004 7.128.132 14.828.968 20.284 5.06 3.652 2.728 1.54 5.984-.66 7.788-3.432 2.86-13.024 5.104-15.532 5.544 1.364-2.068 6.688-10.208 7.128-12.716.308-1.804-3.212.132-2.508.264.792.132.396 1.408.132 1.936-1.188 2.552-3.652 7.04-6.292 10.648-.748.22-1.98.308-2.508.352-.396.044-.572.88.396 1.232.396.176.66.22 1.056.308-1.936 2.948-5.676 8.8-6.424 11.176-.44003 1.408.044 1.232.572.088 1.496-3.3 6.336-10.252 7.084-11.132 1.892.264 6.82 1.364 8.36 2.552 2.376 1.76 1.188 4.444-.924 5.412-2.42 1.1-5.676 1.628-8.624 1.54-.748-.044-1.584.748.308.88z"/><path d="m51.1975 38.9698c.396-.572-.176-2.684-1.276-1.672-3.564 3.124-9.416 10.34-14.036 13.112-1.452.836-2.376.176-1.672-2.2.88-3.124 4.576-8.888 7.216-12.188 1.1-1.364-.572-1.496-1.188-.792-2.2 2.596-7.744 10.428-8.052 14.564-.088 1.452 1.012 2.772 2.596 2.244 1.848-.616 8.668-7.216 11.528-10.032 1.056-1.056 1.408-.176 1.056.704-.836 1.98-2.068 4.62-2.068 6.908 0 1.144 1.452 2.42 2.2 2.2.748-.264 4.664-2.992 5.28-3.608.704-.704.616-1.364-.308-.748-.352.22-4.048 2.772-4.444 2.904-.836.22-1.848.572-1.496-1.54.396-2.376 3.036-7.392 4.664-9.856z"/><path d="m51.7255 52.4778c-10.868 2.112-41.184 10.12-46.37603 22.22-3.388 7.876 6.51203 17.116 16.23603 16.5 16.808-1.1 26.84-24.816 31.504-38.192 4.796-1.056 13.244-1.32 16.28-1.012 1.54.132 2.508.968 2.024 2.552-.352 1.1-1.32 2.508-2.464 3.564-.66.66-.484.924.308.308 1.188-.968 2.112-1.54 2.86-2.904.968-1.804-1.144-3.96-2.64-4.268-2.904-.572-10.604 0-16.06.968 1.364-3.784 3.256-9.988 4.048-12.056.264-.352.44-.704.484-1.056.044-.528-.396-.792-1.056-.616-.528.176-1.54.924-1.628 1.584.396.396-2.244 9.504-3.52 12.408zm-45.32003 23.408c4.18003-10.648 26.75203-18.92 45.14403-22.704-2.552 7.832-13.464 36.564-30.052 37.224-9.724.396-17.82003-7.656-15.09203-14.52zm53.54803-42.636c.22-.528-.572-1.188-1.144-1.056-.44.088-.968.484-1.628 1.188-.704.704-1.012 1.232-1.012 1.628s.308.616.924.748c.44.132.968-.176 1.672-.792.704-.66 1.1-1.232 1.188-1.716z"/><path d="m57.6215 50.9818c1.188-.264 1.936-.572 2.244-.968 3.432-4.004 6.776-7.216 10.076-9.548.22-.132.44-.22.704-.22.528 0 .792.22.792.704 0 .132-.044.308-.132.44-1.716 2.332-3.168 4.84-4.532 7.524-1.628 3.212-2.596 5.896-2.772 7.964-.132 1.848.176 3.212 1.012 4.136.748.748 1.716 1.1 2.904.968 3.256-.352 6.292-1.892 9.152-4.708 2.068-2.068 3.432-3.916 3.96-5.632.176-.528.264-.968.264-1.276 0-.66-.264-1.012-.748-1.012-.396 0-1.056.264-1.056.616 0 .308 1.32-.132 1.32 1.1 0 1.452-1.408 3.344-4.18 5.72-2.508 2.112-4.62 3.432-6.292 3.916-.44.132-.836.176-1.276.176-1.012 0-1.804-.308-2.42-.968-.66-.704-.924-1.76-.836-3.124.176-2.068 1.012-4.84 2.596-8.272 1.628-3.432 3.52-6.556 5.632-9.24.44-.528.44-.88.044-1.012-.352-.176-.88-.132-1.54.176-.396.132-.748.396-1.1.704-.704.264-2.2 1.276-4.444 3.08-1.892 1.54-3.696 3.08-5.324 4.664-.176.22-.396.308-.528.308-.22 0-.352-.132-.352-.484 0-.176.044-.396.176-.572 1.144-2.596 2.772-5.192 4.972-7.744.088-.088.132-.22.132-.308-.044-.044-.132-.044-.308 0-.616.088-.924.308-1.1.572-1.144 1.408-2.508 3.256-4.048 5.588-1.584 2.42-2.728 4.356-3.432 5.852-.176.352-.22.572-.088.704.044.176.22.22.528.176z"/><path d="m82.7895 48.6058c.66-.66.748-1.54-.264-.528-1.584 1.496-3.168 2.596-5.368 3.124-1.144.264-2.86.264-1.408-2.684 2.112-4.356-1.1 1.672 4.884-9.636 1.144-2.156-1.496-2.508-1.716-1.1-.132.748-4.752 9.064-4.796 11.924-.044 2.156 2.64 2.948 3.3 2.64 2.552-1.144 3.96-2.332 5.368-3.74zm.748-15.884c.176-.528-.572-1.188-1.188-1.056-.44.088-.968.484-1.628 1.188-.704.704-1.012 1.232-1.012 1.628 0 .352.308.616.968.748.44.088.968-.176 1.628-.792.748-.66 1.144-1.232 1.232-1.716z"/><path d="m95.9455 38.2218c1.716-2.42-.352-4.356-2.596-3.652-4.18 1.276-11.132 8.448-11.44 14.828-.132 2.332 2.684 4.312 4.4 4.004 2.2-.396 4.664-1.892 5.896-2.772.484-.352.176-.616-.308-.308-1.628.924-4.048 1.892-5.984 2.112-1.496.132-3.124-.44-2.948-3.036.176-2.772 1.98-5.368 3.3-7.172l.528-.704c1.98-2.2 4.268-4.4 6.424-5.632 1.76-.968 3.124.22 1.672 1.936-1.144 1.32.396 1.32 1.056.396z"/><path d="m106.813 34.3938c11.44 0 23.056-2.772 34.848-8.316 3.212-1.496 5.632-3.3 7.26-5.5 1.496-1.936 2.244-3.96 2.244-6.116 0-2.86-1.188-5.36798-3.564-7.39198-2.508-2.112-5.676-3.124-9.46-3.124-2.2 0-4.488.396-6.82 1.188-8.492 2.992-16.808 10.51598-24.948 22.74798-2.816.66-5.016 1.716-6.4675 3.256-.176.176-.308.44-.308.792 0 .792.7915 1.892 1.5835 2.068.528.088.968.132 1.276.176h.176c-1.232 1.98-2.6395 4.444-4.2675 7.216-.792-.176-1.496.748-1.012 2.244-.88 1.672-1.98 4.488-3.564 8.448-.044.132-.044.22-.044.352.132.44.22.704.44.704.132 0 .22-.088.264-.22 1.452-3.52 2.64-6.248 3.828-8.14 6.9955 8.668 13.1115 13.728 18.4795 15.18.396.088 1.056.396 2.288.528 1.276.176 2.024.22 2.156.132 1.232-.792 1.936-1.936 2.376-2.948-.044-.132-.044-.308-.088-.352-.088-.044-.22.044-.308.22-.704 1.584-2.112 2.376-4.048 2.376-.44 0-.924-.088-1.364-.22-2.816-.836-6.116-2.948-9.812-6.38-3.432-3.168-5.896-6.248-7.612-9.24 2.112 0 4.356-.528 6.6-1.54 2.42-1.1 4.048-2.332 4.796-3.872.44-.924.572-1.628.572-2.156-.088-.66-.528-1.012-1.408-1.012-2.024 0-5.764 1.98-11.3515 6.028 1.8915-3.124 3.2115-5.412 3.9595-6.908.22-.088.528-.176.748-.264.836.044 1.716.044 2.552.044zm-2.552-.836c8.492-14.476 17.556-23.75998 27.368-27.85198 1.98-.836 4.048-1.276 6.292-1.276 3.256 0 6.116.88 8.58 2.596s3.696 3.82798 3.696 6.33598c0 3.916-3.036 7.7-9.152 11.22-5.72 3.3-11.88 5.72-18.524 7.304-5.192 1.232-10.164 1.76-15.004 1.76-1.188 0-2.244-.044-3.256-.088zm3.256 8.008c-.748.572-1.892 1.056-3.3 1.496-1.32.44-2.508.616-3.432.616-.264 0-.44 0-.572-.044-.3515-.572-.5275-1.012-.6155-1.32.6595-.704 1.8915-1.716 3.7835-2.948 2.2-1.452 3.828-2.244 4.708-2.376.924-.132 1.452.264 1.496 1.056.044 1.232-.572 2.376-2.068 3.52zm-4.62-8.096c-.176 0-.66-.088-1.496-.22-.616-.132-.968-.352-.968-.836 0-.308.088-.616.352-.836 1.144-1.364 2.904-2.464 5.324-3.212-1.056 1.672-2.112 3.344-3.212 5.104z"/><path d="m110.817 51.4658c1.892-1.1 4.092-2.728 6.644-4.884 2.552-2.2 4.532-4.092 5.94-5.764.044-.044.088-.088.132-.088.264 0 .264.132.044.484-1.012 1.496-1.98 3.344-2.948 5.456-1.584 3.476-3.52 9.768-3.608 12.232-.044 1.496.352 2.728 1.452 3.432.924.572 2.112 1.144 3.52 1.144.924 0 1.76-.176 2.552-.44 1.628-.572 3.608-1.892 6.028-3.872 2.596-2.2 4.532-4.532 5.852-6.512.132-.22.176-.352.176-.484 0-.044 0-.088-.044-.132-.132 0-.264.132-.528.44-1.408 1.804-3.344 3.96-5.72 5.896-2.464 1.98-4.488 3.256-6.072 3.784-1.012.352-2.112.528-3.124.528-2.112 0-3.432-.968-3.432-2.948 0-.264 0-.528.044-.836.528-3.388 2.904-10.472 5.368-14.608 1.584-2.596 3.3-5.192 4.972-7.788.044-.132-.176-.528-.396-.528-.088 0-.22.044-.264.088-.264.308-.66.484-1.144.572-.132.044-.396 0-.836-.044-.704-.22-1.408-.396-2.112-.396-.66 0-1.276.132-1.804.352-2.288.88-4.928 2.772-7.92 5.72-3.256 3.256-4.884 5.94-4.884 8.008 0 1.056.352 1.54 1.1 1.54.352 0 .66-.132 1.012-.352zm.704-3.74c.836-1.892 2.2-3.96 4.18-6.16 2.068-2.288 3.828-3.652 5.236-4.004.352-.088.66-.132 1.012-.132 1.188 0 2.024.66 2.024 1.32 0 .132-.044.22-.132.308-4.136 4.928-7.788 8.448-11.044 10.516-.22.132-.484.22-.66.22-.528 0-.792-.308-.792-1.056 0-.308.044-.66.176-1.012z"/><path d="m128.373 44.7338h6.468c.748 0 1.144-.308 1.144-.748 0-.264-.22-.44-.748-.44h-6.204c-.924 0-1.408.264-1.408.792 0 .264.22.396.748.396z"/><path d="m153.541 20.9738c14.256 4.708 16.28 18.304 5.896 26.576-5.852 4.708-17.336 7.084-19.756 2.904-.44-.792-.44-2.024-.088-2.86 1.848-4.444 11-18.26 14.344-22.484.616-.792-1.1-.792-1.76-.044-2.948 3.344-9.416 13.772-12.98 21.032-.088.22.088.176-.132.176-1.276.088-1.628.924-1.056 2.332.132.396.132.352.044.66-.484 1.364-1.1 2.948-1.32 4.136-.22 1.232.44 1.144.616.132.264-1.232.616-2.024.968-2.948.264-.528.396-.484.616 0 2.992 6.952 16.588.88 20.988-2.332 12.012-8.844 10.472-23.408-5.808-28.688-6.864-2.2-27.016-1.892-28.996 8.756-.66 3.696 1.408 7.392 5.368 11.22 1.144 1.056 1.628.572.572-.572-2.2-2.464-6.116-7.04-4.532-11.66 3.124-9.196 20.284-8.58 27.016-6.336z"/><path d="m186.145 39.8058c.308-.396-.044-.572-.308-.176-.704.616-2.112 1.408-3.344 1.54-1.892.22-5.456.22-8.668.22 2.904-.44 5.368-1.628 6.292-3.256.968-1.716-.44-4.752-2.64-3.916-4.092 1.54-11.088 8.668-11.396 15.092-.088 2.288 2.64 4.312 4.4 4.004 2.156-.396 4.664-1.892 5.896-2.772.484-.352.132-.572-.352-.308-1.584.924-4.004 1.892-5.94 2.112-1.496.176-3.08-.44-2.948-3.036.176-2.772 1.98-5.412 3.3-7.172 3.52 0 10.076 0 12.056-.308 1.628-.22 3.08-1.408 3.652-2.024zm-7.084-2.068c-1.408 2.112-5.06 3.652-8.14 3.652 1.98-2.156 4.312-4.356 6.468-5.588 1.76-.968 2.904.044 1.672 1.936z"/><path d="m178.929 50.9818c1.188-.264 1.936-.572 2.244-.968 3.432-4.004 6.776-7.216 10.076-9.548.22-.132.44-.22.704-.22.528 0 .792.22.792.704 0 .132-.044.308-.132.44-1.716 2.332-3.168 4.84-4.532 7.524-1.628 3.212-2.596 5.896-2.772 7.964-.132 1.848.176 3.212 1.012 4.136.748.748 1.716 1.1 2.904.968 3.256-.352 6.292-1.892 9.152-4.708 2.068-2.068 3.432-3.916 3.96-5.632.176-.528.264-.968.264-1.276 0-.66-.264-1.012-.748-1.012-.396 0-1.056.264-1.056.616 0 .308 1.32-.132 1.32 1.1 0 1.452-1.408 3.344-4.18 5.72-2.508 2.112-4.62 3.432-6.292 3.916-.44.132-.836.176-1.276.176-1.012 0-1.804-.308-2.42-.968-.66-.704-.924-1.76-.836-3.124.176-2.068 1.012-4.84 2.596-8.272 1.628-3.432 3.52-6.556 5.632-9.24.44-.528.44-.88.044-1.012-.352-.176-.88-.132-1.54.176-.396.132-.748.396-1.1.704-.704.264-2.2 1.276-4.444 3.08-1.892 1.54-3.696 3.08-5.324 4.664-.176.22-.396.308-.528.308-.22 0-.352-.132-.352-.484 0-.176.044-.396.176-.572 1.144-2.596 2.772-5.192 4.972-7.744.088-.088.132-.22.132-.308-.044-.044-.132-.044-.308 0-.616.088-.924.308-1.1.572-1.144 1.408-2.508 3.256-4.048 5.588-1.584 2.42-2.728 4.356-3.432 5.852-.176.352-.22.572-.088.704.044.176.22.22.528.176z"/><path d="m197.321 76.5018c3.916 0 8.36-2.376 13.42-6.952 5.016-4.532 7.876-8.756 8.404-12.628.088-.66-.396-1.716-1.232-2.992-.88-1.32-1.716-1.892-2.684-1.892-.176 0-.352 0-.528.044-1.54.616-1.936.88-2.2 1.364-.044.22.088.396.352.396.308 0 .968-.572 1.848-.704 1.936-.308 2.948.924 2.948 3.652-.484 3.124-2.596 6.688-6.38 10.692s-7.392 6.556-11.044 7.7c-1.32.44-2.42.572-3.432.572-3.608 0-5.412-2.552-5.412-7.656 0-.704 0-1.364.044-2.112.484-5.412 2.816-12.32 6.908-20.636 2.596-5.28 5.368-9.592 8.448-14.168.22-.352.616-.616 1.1-.704 5.456-.264 9.768-.572 13.112-.704.528-.044.88-.792.88-.88-.088-.088-.22-.132-.528-.132-.484 0-2.376-.044-5.808-.044h-6.38c-.66 0-.748-.396-.308-1.012 6.38-8.756 10.912-13.376 13.684-13.948.308-.088.44-.132.44-.308 0-.22-.132-.396-.484-.396-.704 0-1.1.264-2.508.748-1.408.528-2.244.88-2.464 1.144-4.004 4.664-7.92 9.02-10.692 13.376-.132.176.22.396 0 .396-2.772 0-4.4.176-4.576.528-.22.44.132.924 1.232 1.364.572.308.792.704.792 1.232 0 .484-.132.88-.528 1.32-2.992 4.312-6.028 9.768-8.976 16.544-3.344 7.656-5.06 13.596-5.06 17.776 0 2.508.264 4.664 1.804 6.38 1.54 1.672 3.476 2.64 5.808 2.64z"/><path d="m203.789 51.2458c0-1.54-.132-2.464-.352-2.684-.088-.044-.176-.088-.264-.088-.572 0-1.804.572-1.98.88-.132.176-.088.616 0 1.32.22 1.364.352 1.408.704 1.408.748 0 1.892-.484 1.892-.836z"/><path d="m204.053 59.2538c-1.276 2.86-2.596 5.852-3.872 8.624-2.376 5.324-4.972 9.724-7.48 13.332-3.432 5.016-6.82 8.404-10.076 10.164-1.672.924-3.476 1.364-5.324 1.364-2.904 0-5.456-1.012-7.612-3.168-2.244-2.244-3.388-4.796-3.388-7.964 0-4.972 2.728-9.636 8.008-14.212 4.796-4.092 10.604-7.172 17.468-9.24 4.796-1.408 9.24-2.156 13.684-2.2-.572 1.32-1.012 2.42-1.408 3.3zm5.412-3.168c1.452.132 1.98.792 1.98 1.848 0 1.276-.836 2.728-2.596 4.356-.308.22-.44.396-.44.572 0 .044.044.044.088.044.176 0 .352-.088.66-.352 1.496-1.188 2.464-2.156 2.86-2.904.132-.264.22-.616.22-.968 0-1.496-1.1-2.992-2.86-3.256-.792-.132-1.672-.132-2.596-.132 3.916-8.272 6.512-11.088 8.712-14.872 2.2-1.144 3.916-1.76 5.28-1.76 1.76 0 2.64.792 2.64 2.376 0 1.804-.748 3.608-2.244 5.324-5.588 1.848-8.8 2.992-9.548 3.476-.132.132-.176.264-.176.44 0 .66.308.924.924.836 3.828-.396 6.952-1.848 9.372-4.092 2.948-1.012 5.5-1.804 7.568-2.376.132-.044.22-.088.308-.176.044-.044.044-.088 0-.132-.088-.044-.176-.044-.308 0-.572.044-2.596.528-6.16 1.452 1.364-1.892 2.024-3.608 2.024-5.104 0-1.936-1.056-2.904-3.168-2.904-1.496 0-3.388.396-5.764 1.32 2.244-3.828 1.32-2.552 3.08-5.104.352-.528.528-.44.528-.66s-.176-.264-.572-.132c-.88.352-1.408.616-1.584.88-3.036 4.576-2.332 3.564-3.784 5.808-1.408.572-2.156 1.1-2.332 1.584-.088.352.176.792.748 1.32-1.276 2.288-2.464 4.62-3.74 6.864-1.364 2.376-1.804 3.52-2.904 5.632-4.972.044-9.9.88-15.004 2.244-7.172 1.936-13.156 5.06-17.908 9.196-4.708 4.048-6.996 8.668-6.996 13.904 0 3.608 1.056 6.644 3.256 9.24 2.112 2.552 4.796 3.828 7.964 3.828 1.98 0 4.004-.528 6.028-1.628 7.568-4.136 15.048-15.004 22.132-32.648.484-1.188.924-2.376 1.408-3.476 1.056 0 1.628-.088 2.904.132z"/><path d="m227.769 48.1218c.176 5.456 4.532 5.544 8.624 1.892.44-.396.748-1.188-.352-.396-2.816 2.024-6.6 3.036-6.468-2.464.088-2.376.836-5.676 1.804-8.404 8.888-1.672 17.512-4.136 25.872-7.304 12.232-4.664 19.712-9.592 22.484-14.872.528-1.056.88-2.156.968-3.256.352-3.51998-1.188-6.64398-4.488-9.41598-3.212-2.772-6.996-4.091997-11.264-3.8279969-12.452.7479999-24.068 13.4639769-34.936 38.1039769v.132c-1.452 3.388-2.376 6.776-2.244 9.812zm51.04-32.736c-2.376 4.884-8.58 9.548-18.612 13.948-8.36 3.652-17.908 6.556-28.6 8.756.176-.308.264-.572.396-.88h-.044c3.212-7.48 6.996-14.256 11.396-20.416 7.348-10.25198 14.564-15.66398 21.604-15.927977 4.18-.176 7.744 1.011997 10.692 3.475997 2.904 2.376 4.268 5.148 3.916 8.22798-.088.968-.308 1.892-.748 2.816z"/></g></svg>