<svg
   viewBox="0 0 455.34668 197.24001"
   xmlns="http://www.w3.org/2000/svg">
  <g
     transform="matrix(1.3333333,0,0,-1.3333333,0,197.24)">
    <g
       transform="scale(0.1)">
      <path
         d="m 1973.87,1244.61 c -55.49,88.71 -153.99,147.75 -266.33,147.75 -112.34,0 -210.86,-59.04 -266.35,-147.75 C 676.133,1199.09 92.7734,960.754 92.7734,673.547 92.7734,353.77 815.723,94.5703 1707.54,94.5703 c 891.8,0 1614.76,259.1997 1614.76,578.9767 0,287.226 -583.37,525.543 -1348.43,571.063"
         style="fill:#1b3c7b;fill-opacity:1;fill-rule:nonzero;stroke:none"
         id="path12" />
      <path
         d="m 751.926,755.414 c -9.133,6.434 -19.453,11.27 -30.996,14.492 -11.543,3.223 -24.426,4.832 -38.645,4.832 -29.121,0 -57.844,-4.968 -86.152,-14.902 -28.313,-9.93 -53.34,-23.887 -75.078,-41.863 -25.496,-21.067 -45.285,-45.157 -59.375,-72.258 -14.09,-27.11 -21.133,-54.551 -21.133,-82.324 0,-23.485 5.469,-42 16.406,-55.555 10.93,-13.555 25.664,-20.324 44.18,-20.324 10.058,0 20.527,2.511 31.394,7.551 10.871,5.027 21.067,12.109 30.598,21.23 16.105,15.703 37.371,44.082 63.809,85.145 l 12.48,19.121 c 24.149,37.57 44.539,66.086 61.184,85.539 15.965,18.925 33.074,35.359 51.328,49.316 z m 6.844,-5.031 C 736.094,736.047 703.547,696.457 661.152,631.625 L 640.613,599.777 C 610.828,554.23 584.895,522.824 562.82,505.559 540.754,488.293 517.031,479.66 491.672,479.66 c -24.555,0 -44.348,7.578 -59.375,22.746 -15.031,15.164 -22.551,35.157 -22.551,59.981 0,26.836 8.059,53.906 24.16,81.218 16.106,27.305 38.407,51.458 66.922,72.454 28.52,21.004 58.906,37.207 91.184,48.613 32.265,11.406 64.375,17.109 96.308,17.109 16.368,0 31.133,-1.281 44.278,-3.828 13.156,-2.551 25.363,-6.504 36.64,-11.875 10.735,5.516 19.317,9.727 25.762,12.617 6.438,2.899 10.73,4.344 12.883,4.344 0.801,-0.273 1.336,-0.574 1.609,-0.906 0.266,-0.344 0.403,-0.977 0.403,-1.914 0,-1.887 -4.165,-4.543 -12.485,-7.969 -8.316,-3.437 -15.828,-6.973 -22.539,-10.598 10.063,-5.769 17.817,-13.222 23.242,-22.343 5.442,-9.129 8.157,-19.188 8.157,-30.196 0,-17.175 -6.641,-32.265 -19.922,-45.281 -13.289,-13.019 -31.946,-22.344 -55.957,-27.98 19.187,-4.422 34.277,-12.481 45.285,-24.149 11.004,-11.68 16.504,-25.637 16.504,-41.867 0,-23.484 -9.399,-44.422 -28.176,-62.801 -9.531,-9.133 -19.695,-15.969 -30.496,-20.527 -10.805,-4.57 -22.715,-6.848 -35.727,-6.848 -16.914,0 -30.593,4.629 -41.062,13.887 -10.469,9.258 -15.703,21.269 -15.703,36.027 0,10.742 3.027,20.867 9.062,30.399 6.035,9.523 14.824,17.511 26.367,23.945 4.832,2.687 10.528,5.234 17.11,7.656 6.035,2.012 10.332,3.02 12.883,3.02 0.261,-0.137 0.566,-0.274 0.906,-0.403 0.332,-0.136 0.703,-0.41 1.101,-0.808 0.403,-0.403 0.735,-1.211 1.008,-2.414 0,-0.809 -3.086,-2.489 -9.258,-5.039 -6.172,-2.547 -11.738,-5.43 -16.711,-8.653 -11.129,-6.972 -19.683,-15.097 -25.664,-24.355 -5.965,-9.258 -8.953,-18.984 -8.953,-29.18 0,-8.992 3.36,-16.14 10.071,-21.433 6.707,-5.305 15.964,-7.961 27.773,-7.961 7.242,0 14.519,1.652 21.836,4.933 7.312,3.289 14.598,8.153 21.844,14.598 9.66,8.586 17.578,19.191 23.75,31.797 6.172,12.617 9.257,24.687 9.257,36.23 0,13.555 -3.625,24.824 -10.871,33.821 -7.246,8.984 -17.246,14.285 -29.988,15.898 l -15.305,-3.223 c -4.421,-0.8 -7.976,-1.203 -10.664,-1.203 -2.808,0 -4.961,0.637 -6.433,1.914 -1.485,1.27 -2.215,3.254 -2.215,5.938 0,2.676 1.172,4.797 3.516,6.34 2.351,1.543 5.605,2.312 9.761,2.312 1.34,0 2.688,0 4.028,0 1.609,-0.398 3.32,-0.742 5.132,-1.004 1.809,-0.273 2.993,-0.48 3.528,-0.605 1.875,-0.676 3.215,-1.074 4.023,-1.211 15.969,0 29.524,6.875 40.653,20.633 11.144,13.75 16.71,30.625 16.71,50.625 0,7.375 -1.242,14.015 -3.718,19.922 -2.492,5.91 -6.75,12.011 -12.785,18.32"
         style="fill:#ffffff;fill-opacity:1;fill-rule:nonzero;stroke:none"
         id="path14" />
      <path
         d="m 885.09,517.504 -0.61,-1.008 c -7.246,-11.543 -10.867,-19.324 -10.867,-23.348 0,-2.55 0.535,-4.433 1.614,-5.636 1.062,-1.211 2.671,-1.817 4.824,-1.817 3.758,0 9.09,2.785 16.004,8.36 6.906,5.566 16.465,14.523 28.679,26.867 L 935.605,533 c 4.024,4.824 6.708,7.246 8.047,7.246 l 1.614,-0.605 0.808,-1.004 c 0,-1.074 -1.074,-3.059 -3.222,-5.938 -2.149,-2.89 -6.446,-7.687 -12.879,-14.394 -12.219,-12.883 -22.551,-22.539 -30.996,-28.985 -8.457,-6.437 -14.895,-9.66 -19.329,-9.66 -5.632,0 -10.332,2.551 -14.089,7.649 -3.489,5.371 -5.239,12.148 -5.239,20.332 l 0.813,5.027 0.801,6.848 c -11.133,-12.883 -21.329,-22.746 -30.594,-29.59 -9.262,-6.848 -17.043,-10.266 -23.344,-10.266 -6.844,0 -12.351,2.383 -16.512,7.149 -4.16,4.757 -6.23,11.035 -6.23,18.82 0,10.867 10.129,31.465 30.391,61.785 l 3.015,4.434 c -4.019,-4.032 -7.715,-7.852 -11.07,-11.473 -4.16,-4.434 -8.188,-8.859 -12.07,-13.281 -8.059,-9.27 -12.825,-13.899 -14.297,-13.899 l -1.41,0.207 -0.602,1.004 c 0,1.614 4.363,7.383 13.086,17.317 8.047,9.382 21.133,23.543 39.246,42.468 l 29.59,1.602 -40.86,-63.797 -2.617,-4.23 c -11.679,-18.516 -17.511,-30.059 -17.511,-34.618 0,-1.886 0.57,-3.527 1.71,-4.933 1.141,-1.406 2.786,-2.246 4.93,-2.52 10.871,0 25.156,9.532 42.871,28.586 17.715,19.051 36.77,45.692 57.168,79.91 l 27.778,1.602 -49.512,-78.289"
         style="fill:#ffffff;fill-opacity:1;fill-rule:nonzero;stroke:none"
         id="path16" />
      <path
         d="m 1016.72,661.008 c 0,4.562 1.72,8.789 5.14,12.687 3.41,3.887 7.2,5.84 11.37,5.84 3.35,0 5.97,-1.144 7.84,-3.43 2.15,-2.148 3.23,-4.96 3.23,-8.445 0,-4.57 -1.68,-8.828 -5.03,-12.785 -3.36,-3.965 -7.18,-5.937 -11.48,-5.937 -3.22,0 -5.87,1.132 -7.95,3.417 -2.08,2.286 -3.12,5.168 -3.12,8.653 z M 932.188,465.172 c -29.661,-17.184 -52.801,-34.051 -69.446,-50.633 -16.637,-16.57 -24.961,-31.019 -24.961,-43.367 0,-4.434 1.008,-7.852 3.02,-10.274 2.019,-2.41 4.969,-3.617 8.855,-3.617 10.071,0 21.543,8.25 34.426,24.758 12.883,16.512 28.914,44.211 48.106,83.133 z m 54.738,115.535 -27.973,-30.801 c -10.058,-11.269 -15.828,-16.972 -17.305,-17.109 l -1.414,0.398 -0.605,1.211 c 0,1.074 0.676,2.551 2.019,4.434 l 7.446,9.25 40.254,46.101 29.392,2.012 c -10.07,-21.336 -19.599,-40.859 -28.584,-58.574 -9.668,-19.051 -19.519,-37.977 -29.59,-56.758 8.457,5.899 16.504,12.043 24.153,18.41 7.652,6.375 14.898,13.055 21.741,20.028 l 20.53,20.937 c 0.94,0 1.54,-0.137 1.81,-0.398 l 0.6,-1.211 c 0,-3.625 -7.28,-12.481 -21.83,-26.574 -14.562,-14.09 -32.043,-27.645 -52.441,-40.653 -20.258,-38.379 -39.649,-67.969 -58.164,-88.769 -18.52,-20.789 -34.824,-31.192 -48.918,-31.192 -6.836,0 -12.039,1.742 -15.598,5.231 -3.554,3.492 -5.332,8.59 -5.332,15.3 0,13.411 8.321,27.879 24.953,43.372 16.641,15.5 44.961,34.988 84.942,58.468 l 49.914,106.887"
         style="fill:#ffffff;fill-opacity:1;fill-rule:nonzero;stroke:none"
         id="path18" />
      <path
         d="m 1031.22,481.273 53.54,80.157 2.61,3.816 c 6.98,10.449 10.47,17.414 10.47,20.899 0,1.738 -0.4,3.007 -1.21,3.82 -0.8,0.801 -2.28,1.199 -4.42,1.199 -4.56,0 -10.5,-2.871 -17.82,-8.621 -7.31,-5.754 -17.48,-15.645 -30.49,-29.688 -1.48,-1.476 -3.35,-3.546 -5.64,-6.222 -2.28,-2.676 -3.76,-4.414 -4.42,-5.203 -4.57,-5.625 -7.66,-8.496 -9.26,-8.633 l -1.42,0.398 -0.6,1.203 c 0,1.075 0.67,2.547 2.02,4.422 l 7.44,9.231 13.09,14.246 c 6.17,6.555 11.87,12.305 17.11,17.258 4.69,4.414 8.85,8.015 12.48,10.828 6.97,4.953 13.35,7.433 19.12,7.433 4.82,0 8.72,-1.711 11.67,-5.117 2.95,-3.418 4.43,-8.066 4.43,-13.945 0,-6.426 -1.35,-13.047 -4.03,-19.863 -2.41,-7.227 -6.57,-15.391 -12.47,-24.485 21.33,23.946 37.36,40.391 48.1,49.356 11.4,9.367 20.39,14.054 26.97,14.054 4.43,0 8.18,-1.816 11.28,-5.429 2.81,-3.614 4.21,-8.438 4.21,-14.465 0,-10.32 -6.77,-24.715 -20.32,-43.203 l -5.04,-7.031 c -7.51,-10.04 -12.58,-17.618 -15.19,-22.704 -2.62,-5.089 -3.93,-9.043 -3.93,-11.847 0,-2.547 0.54,-4.422 1.61,-5.633 1.08,-1.203 2.76,-1.809 5.04,-1.809 3.22,0 8.78,3.059 16.7,9.16 7.92,6.106 17.18,14.797 27.78,26.067 L 1201.7,533 c 4.3,4.824 6.91,7.246 7.85,7.246 0.94,-0.273 1.54,-0.535 1.82,-0.808 l 0.8,-1.204 c 0,-2.011 -5.98,-9.199 -17.91,-21.543 l -2.42,-2.41 c -11.27,-11.672 -20.77,-20.363 -28.48,-26.066 -7.72,-5.703 -13.58,-8.555 -17.62,-8.555 -5.77,0 -10.5,2.649 -14.19,7.93 -3.69,5.293 -5.53,12.363 -5.53,21.203 0,6.023 1.65,12.586 4.93,19.687 3.29,7.098 10.44,17.411 21.44,30.946 l 6.23,7.637 c 3.9,4.816 6.85,8.839 8.86,12.05 2.01,3.215 3.03,5.696 3.03,7.434 0,1.738 -0.28,2.879 -0.81,3.418 -0.54,0.527 -1.81,0.937 -3.83,1.199 -6.44,0 -19.15,-9.539 -38.14,-28.633 -18.99,-19.082 -41.56,-45.234 -67.73,-78.445 l -28.78,-2.813"
         style="fill:#ffffff;fill-opacity:1;fill-rule:nonzero;stroke:none"
         id="path20" />
      <path
         d="m 1295.29,661.008 c 0,4.433 1.78,8.625 5.34,12.59 3.55,3.953 7.41,5.937 11.57,5.937 3.22,0 5.87,-1.086 7.96,-3.222 2.07,-2.149 3.11,-5.032 3.11,-8.653 0,-4.433 -1.64,-8.664 -4.93,-12.687 -3.29,-4.024 -7.08,-6.035 -11.37,-6.035 -3.36,0 -6.14,1.171 -8.36,3.515 -2.2,2.356 -3.32,5.207 -3.32,8.555 z m -50.72,-88.965 c -8.32,-8.32 -16.17,-16.699 -23.54,-25.156 -7.92,-8.992 -12.69,-13.555 -14.3,-13.692 l -1.2,0.207 -0.41,1.004 c 0,1.739 4.56,7.852 13.69,18.321 7.92,9.121 20.8,22.941 38.64,41.464 l 29.59,2.012 -40.86,-64.207 c -7.78,-12.219 -13.35,-21.476 -16.71,-27.785 -2.27,-4.824 -3.42,-8.516 -3.42,-11.063 0,-2.148 0.71,-3.996 2.11,-5.539 1.42,-1.543 3.06,-2.312 4.94,-2.312 5.09,0 11.37,2.742 18.81,8.25 7.46,5.5 17.28,14.758 29.5,27.773 l 8.85,9.864 c 5.24,6.046 8.59,9.062 10.06,9.062 l 1.61,-0.605 0.81,-1.407 c 0,-1.347 -1.14,-3.386 -3.42,-6.14 -2.28,-2.754 -7.44,-8.293 -15.5,-16.602 -13.56,-13.828 -23.95,-23.254 -31.19,-28.281 -7.25,-5.031 -13.63,-7.551 -19.12,-7.551 -6.72,0 -12.12,2.344 -16.22,7.043 -4.09,4.695 -6.13,11.004 -6.13,18.926 0,10.457 9.52,30.059 28.59,58.769 l 4.82,7.645"
         style="fill:#ffffff;fill-opacity:1;fill-rule:nonzero;stroke:none"
         id="path22" />
      <path
         d="m 1306.77,540.852 -5.03,-5.84 c -1.48,-1.211 -2.76,-1.817 -3.82,-1.817 -0.94,0 -1.54,0.137 -1.82,0.41 l -0.6,1.204 c 0,0.937 1.35,3.007 4.02,6.218 L 1312,555.07 c 12.76,13.645 25.6,24.18 38.55,31.602 12.95,7.422 24.93,11.144 35.92,11.144 8.32,0 14.87,-1.953 19.63,-5.839 4.77,-3.899 7.15,-9.133 7.15,-15.704 0,-5.234 -1.44,-9.699 -4.32,-13.378 -2.89,-3.704 -6.49,-5.54 -10.78,-5.54 -3.89,0 -6.94,0.938 -9.16,2.813 -2.21,1.887 -3.32,4.492 -3.32,7.852 0,3.488 2.15,6.574 6.44,9.257 4.3,2.688 6.44,5.235 6.44,7.649 0,2.019 -0.86,3.691 -2.61,5.039 -1.75,1.336 -3.76,2.012 -6.04,2.012 -12.08,0 -25.96,-9.719 -41.67,-29.133 -15.69,-19.422 -23.54,-38.778 -23.54,-58.067 0,-6.152 1.47,-10.945 4.42,-14.355 2.95,-3.418 7.11,-5.125 12.48,-5.125 7.11,0 14.56,2.312 22.35,6.941 7.78,4.629 17.23,12.512 28.37,23.653 4.44,4.289 9.33,9.523 14.7,15.703 4.96,5.636 8.05,8.515 9.26,8.652 l 1.61,-0.605 0.8,-1.407 c 0,-1.211 -1.24,-3.359 -3.72,-6.445 -2.49,-3.086 -8.22,-9.187 -17.21,-18.309 -12.08,-12.082 -22.71,-20.734 -31.9,-25.968 -9.2,-5.235 -18.09,-7.852 -26.67,-7.852 -10.07,0 -18.35,4.16 -24.86,12.481 -6.51,8.32 -9.76,18.984 -9.76,32.004 l 0.61,7.851 1.6,8.856"
         style="fill:#ffffff;fill-opacity:1;fill-rule:nonzero;stroke:none"
         id="path24" />
      <path
         d="m 1491.75,544.27 c -4.84,-2.411 -8.66,-4.024 -11.48,-4.832 -2.82,-0.801 -5.44,-1.204 -7.85,-1.204 -2.68,0 -4.72,0.567 -6.14,1.711 -1.41,1.133 -2.25,2.852 -2.51,5.125 0,2.551 1.2,4.641 3.62,6.243 2.41,1.609 5.71,2.421 9.87,2.421 1.2,0 2.41,0 3.62,0 1.2,-0.402 2.27,-0.703 3.21,-0.91 0.94,-0.203 1.82,-0.469 2.62,-0.801 0.81,-0.339 1.94,-0.976 3.43,-1.914 5.9,1.204 13.82,7.649 23.75,19.317 l 5.03,6.242 c 7.24,8.32 13.51,14.187 18.81,17.617 5.31,3.418 10.57,5.125 15.81,5.125 4.96,0 8.88,-1.336 11.77,-4.023 2.88,-2.684 4.33,-6.172 4.33,-10.469 0,-4.023 -1.05,-7.313 -3.12,-9.863 -2.09,-2.547 -5,-3.817 -8.76,-3.817 -4.42,0 -7.82,2.813 -10.16,8.446 -2.35,5.644 -4.47,8.457 -6.34,8.457 -1.21,0 -5.67,-5.868 -13.39,-17.606 -7.71,-11.75 -17.54,-19.297 -29.48,-22.648 5.36,-3.496 9.45,-7.246 12.27,-11.27 2.83,-4.023 4.23,-8.523 4.23,-13.484 0,-4.973 -1.24,-10.871 -3.72,-17.715 -2.49,-6.848 -3.73,-11.27 -3.73,-13.281 0,-1.614 0.47,-2.961 1.42,-4.035 0.93,-0.664 2.34,-1.133 4.22,-1.407 3.36,0 9.22,3.457 17.61,10.371 8.38,6.907 18.08,16.27 29.09,28.079 l 9.06,10.058 c 3.21,4.031 5.43,6.043 6.64,6.043 l 1.61,-0.808 0.8,-1.204 c 0,-1.609 -1.5,-4.226 -4.53,-7.851 -3.02,-3.621 -8.09,-8.992 -15.2,-16.102 -11.4,-11.808 -20.96,-20.527 -28.68,-26.164 -7.71,-5.644 -13.98,-8.457 -18.82,-8.457 -6.3,0 -11.94,3.184 -16.9,9.563 -4.97,6.367 -7.45,13.582 -7.45,21.64 0,4.688 0.98,10.059 2.92,16.094 1.94,6.043 3.05,10.066 3.32,12.078 l -0.21,1.613 z m -69.65,-60.184 -24.88,-2.734 59.42,94.773 -32.93,-35.477 c -1.87,-2.285 -3.83,-4.23 -5.83,-5.839 -1.48,-1.075 -2.68,-1.739 -3.62,-2.012 -0.94,0 -1.55,0.137 -1.81,0.398 l -0.6,1.203 28.36,32.215 c 18.77,21.211 36.22,45.5 52.32,72.871 l 52.77,90.352 26.35,3.633 -149.55,-249.383"
         style="fill:#ffffff;fill-opacity:1;fill-rule:nonzero;stroke:none"
         id="path26" />
      <path
         d="m 1596.41,499.758 c 0,-3.875 0.83,-6.961 2.51,-9.238 1.68,-2.274 4.13,-3.418 7.35,-3.418 4.56,0 10.26,2.285 17.11,6.836 6.83,4.55 13.89,10.91 21.13,19.082 5.5,6.027 10.36,11.925 14.59,17.675 4.23,5.762 7.95,11.719 11.17,17.883 6.18,11.922 9.26,21.961 9.26,30.137 0,3.75 -1.34,6.758 -4.02,9.043 -2.55,2.539 -5.71,3.816 -9.47,3.816 -6.7,0 -14.05,-2.918 -22.04,-8.738 -7.97,-5.832 -15.73,-13.996 -23.24,-24.512 -7.52,-10.519 -13.46,-21.094 -17.81,-31.738 -4.37,-10.656 -6.54,-19.59 -6.54,-26.828 z m 88.15,69.941 16.91,24.688 27.17,1.613 -45.28,-71.125 c -6.58,-10.449 -10.8,-17.676 -12.69,-21.699 -1.73,-4.414 -2.61,-7.899 -2.61,-10.438 0,-1.886 0.41,-3.293 1.21,-4.23 0.8,-0.938 2.48,-1.406 5.03,-1.406 3.76,0 9.36,2.851 16.8,8.554 7.45,5.703 16.67,14.258 27.68,25.664 l 11.07,11.875 c 4.03,4.434 6.64,6.778 7.86,7.051 0.93,0 1.54,-0.137 1.8,-0.398 l 0.61,-1.211 c 0,-1.614 -1.55,-4.231 -4.63,-7.852 -2.15,-2.551 -4.09,-4.765 -5.84,-6.64 -1.74,-1.887 -4.56,-4.766 -8.45,-8.653 -14.49,-14.902 -25.19,-24.59 -32.11,-29.094 -6.91,-4.492 -13.38,-6.738 -19.42,-6.738 -5.5,0 -9.7,1.75 -12.58,5.235 -2.89,3.488 -4.33,8.585 -4.33,15.293 v 5.839 c 0.34,2.278 0.55,3.75 0.63,4.426 0.09,0.672 0.55,2.481 1.39,5.438 -9.4,-11.942 -18.49,-20.965 -27.28,-27.071 -8.79,-6.113 -17,-9.16 -24.66,-9.16 -7.24,0 -13.07,3.692 -17.51,11.067 -2.01,3.757 -3.55,8.183 -4.63,13.289 -1.07,5.097 -1.61,10.996 -1.61,17.714 l 0.61,9.661 c 0.4,3.347 1.07,6.504 2.01,9.461 -1.08,-1.747 -1.81,-2.821 -2.22,-3.223 -0.94,-1.211 -1.74,-2.149 -2.41,-2.82 -1.61,-1.34 -2.88,-2.012 -3.82,-2.012 -0.94,0 -1.54,0.137 -1.81,0.398 l -0.61,1.203 c 0,1.211 1.75,3.817 5.23,7.832 l 14.1,15.254 c 12.74,12.704 25.62,22.598 38.64,29.688 13.02,7.09 24.89,10.644 35.62,10.644 6.58,0 11.85,-1.75 15.8,-5.226 3.96,-3.485 5.94,-8.094 5.94,-13.856 0,-1.738 0,-3.144 0,-4.218 l -1.61,-4.817"
         style="fill:#ffffff;fill-opacity:1;fill-rule:nonzero;stroke:none"
         id="path28" />
      <path
         d="m 1759.64,532.395 8.66,18.117 h 96.01 l -8.66,-18.117 h -96.01"
         style="fill:#ffffff;fill-opacity:1;fill-rule:nonzero;stroke:none"
         id="path30" />
      <path
         d="m 2009.82,515.082 c 15.31,-2.551 29.46,-4.758 42.47,-6.641 5.1,-0.8 12.02,-1.738 20.74,-2.812 16.5,-2.012 30.06,-3.02 40.66,-3.02 35.28,0 64.71,10.696 88.25,32.102 23.56,21.406 35.34,47.801 35.34,79.199 0,21.199 -6.12,41.699 -18.32,61.492 -12.21,19.797 -30.27,38.078 -54.15,54.856 -14.89,-17.61 -31.83,-43.84 -50.83,-78.711 -18.98,-34.863 -33.37,-59.024 -43.17,-72.453 l 11.68,-1.063 9.66,-0.351 c 17.31,0 33.05,4.031 47.2,12.078 14.16,8.058 24.39,18.722 30.7,32.004 0.66,1.472 1.31,2.988 1.9,4.531 0.61,1.543 1.24,3.457 1.92,5.73 2.01,6.446 4.23,9.668 6.64,9.668 0.67,0 1.35,-0.41 2.02,-1.211 l 0.8,-3.015 c 0,-3.086 -1.41,-8.059 -4.23,-14.895 -1.47,-3.496 -3.06,-6.64 -4.72,-9.461 -1.68,-2.824 -3.67,-5.703 -5.94,-8.652 -9.13,-11.945 -21.61,-21.574 -37.44,-28.887 -15.83,-7.316 -32.47,-10.968 -49.92,-10.968 l -8.45,0.156 -12.28,0.644 c -6.44,-8.816 -13.76,-17.304 -21.94,-25.457 -8.19,-8.156 -17.72,-16.437 -28.59,-24.863 z m 49.32,67.43 c 3.49,5.508 8.05,12.902 13.69,22.168 5.1,8.468 11.2,18.683 18.31,30.636 28.19,47.567 50.26,80.555 66.22,98.965 -15.29,10.059 -31.39,17.676 -48.3,22.84 -16.91,5.168 -34.09,7.754 -51.53,7.754 -24.96,0 -44.58,-6.719 -58.88,-20.156 -14.28,-13.438 -21.43,-31.903 -21.43,-55.41 0,-23.379 7.55,-45 22.64,-64.883 15.1,-19.883 34.86,-33.856 59.28,-41.914 z m -89.77,-83.125 c -13.56,4.562 -25.77,7.98 -36.64,10.265 -5.63,1.211 -10.45,2.149 -14.49,2.813 -4.02,0.672 -7.58,1.015 -10.66,1.015 -4.44,0 -8.02,-1.015 -10.77,-3.027 -2.76,-2.012 -4.12,-4.765 -4.12,-8.254 0,-5.234 2.71,-9.285 8.14,-12.176 5.44,-2.882 13.18,-4.328 23.25,-4.328 6.71,0 13.75,1.114 21.13,3.321 7.39,2.218 15.43,5.675 24.16,10.371 z m 79.91,68.633 c -26.16,6.855 -47.13,19.777 -62.9,38.781 -15.77,19.004 -23.66,40.867 -23.66,65.586 0,31.824 11.08,58.152 33.22,78.965 22.14,20.82 50.39,31.23 84.73,31.23 16.64,0 32.75,-2.441 48.31,-7.344 15.57,-4.902 31.21,-12.453 46.9,-22.648 11,8.996 18.32,14.726 21.94,17.219 3.63,2.48 6.24,3.718 7.85,3.718 0.94,0 1.78,-0.234 2.51,-0.703 0.75,-0.476 1.12,-1.179 1.12,-2.117 0,-1.34 -3.29,-4.59 -9.87,-9.758 -6.58,-5.164 -11.94,-9.629 -16.1,-13.386 22.41,-18.118 39.01,-36.77 49.81,-55.958 10.81,-19.191 16.21,-39.855 16.21,-61.992 0,-18.117 -3.66,-35.832 -10.97,-53.136 -7.32,-17.313 -17.81,-32.813 -31.5,-46.493 -15.43,-15.703 -34.32,-28.019 -56.67,-36.933 -22.33,-8.926 -45.65,-13.391 -69.94,-13.391 -4.69,0 -9.93,0.274 -15.7,0.801 -5.76,0.539 -12.07,1.418 -18.92,2.617 -13.41,2.285 -34.75,6.914 -64,13.887 -11.01,-6.035 -21.34,-10.457 -31,-13.281 -4.97,-1.336 -9.73,-2.344 -14.29,-3.016 -4.56,-0.676 -9.33,-1.008 -14.29,-1.008 -11.41,0 -20.6,2.219 -27.58,6.641 -6.97,4.426 -10.47,10.195 -10.47,17.316 0,7.508 3.36,13.211 10.07,17.11 6.71,3.886 16.71,5.828 29.99,5.828 8.32,0 18.65,-0.801 31,-2.41 12.34,-1.614 27.44,-4.231 45.29,-7.852 9.79,6.953 18.64,14.637 26.56,23.055 4.16,4.414 8.02,8.886 11.58,13.429 3.55,4.551 7.14,9.629 10.77,15.243"
         style="fill:#ffffff;fill-opacity:1;fill-rule:nonzero;stroke:none"
         id="path32" />
      <path
         d="m 2258.94,527.563 c 18.37,4.031 34.15,11.914 47.29,23.652 13.15,11.738 19.73,22.84 19.73,33.308 0,2.286 -0.74,4.231 -2.21,5.84 -1.21,1.614 -2.89,2.414 -5.04,2.414 -8.86,0 -19.32,-6.242 -31.4,-18.722 -12.08,-12.469 -21.53,-27.969 -28.37,-46.492 z m -22.35,13.886 -5.63,-6.437 c -1.21,-1.211 -2.36,-1.817 -3.42,-1.817 l -1.42,0.207 c -0.4,0.664 -0.6,1.133 -0.6,1.407 0,0.8 1.41,3.007 4.23,6.621 2.82,3.601 6.77,8.152 11.87,13.64 12.34,13.379 25.1,23.84 38.24,31.407 13.16,7.55 25.5,11.339 37.04,11.339 6.71,0 12.18,-1.777 16.41,-5.332 4.22,-3.546 6.34,-8.136 6.34,-13.75 0,-11.113 -7.42,-21.933 -22.25,-32.441 -14.82,-10.508 -35.05,-18.848 -60.68,-25 l -1.61,-10.852 -0.4,-5.625 c 0,-5.906 1.44,-10.566 4.32,-13.984 2.88,-3.426 6.95,-5.137 12.18,-5.137 6.97,0 14.49,2.344 22.55,7.051 8.05,4.688 17.44,12.402 28.17,23.145 2.15,2.14 4.47,4.531 6.95,7.148 2.48,2.609 5,5.402 7.55,8.352 5.09,5.769 8.25,8.718 9.46,8.855 l 1.61,-0.605 0.8,-1.407 c 0,-1.211 -1.24,-3.359 -3.72,-6.445 -2.49,-3.086 -8.22,-9.187 -17.21,-18.309 -12.21,-12.218 -22.85,-20.91 -31.9,-26.074 -9.06,-5.168 -17.81,-7.746 -26.27,-7.746 -10.07,0 -18.42,4.231 -25.06,12.676 -6.64,8.457 -9.96,19.055 -9.96,31.809 l 0.61,8.25 1.8,9.054"
         style="fill:#ffffff;fill-opacity:1;fill-rule:nonzero;stroke:none"
         id="path34" />
      <path
         d="m 2349.91,481.273 53.54,80.157 2.61,3.816 c 6.98,10.449 10.47,17.414 10.47,20.899 0,1.738 -0.4,3.007 -1.21,3.82 -0.8,0.801 -2.28,1.199 -4.42,1.199 -4.56,0 -10.5,-2.871 -17.81,-8.621 -7.32,-5.754 -17.48,-15.645 -30.5,-29.688 -1.48,-1.476 -3.35,-3.546 -5.64,-6.222 -2.28,-2.676 -3.76,-4.414 -4.42,-5.203 -4.57,-5.625 -7.66,-8.496 -9.26,-8.633 l -1.41,0.398 -0.61,1.203 c 0,1.075 0.67,2.547 2.02,4.422 l 7.44,9.231 13.09,14.246 c 6.17,6.555 11.87,12.305 17.11,17.258 4.7,4.414 8.86,8.015 12.48,10.828 6.97,4.953 13.35,7.433 19.12,7.433 4.82,0 8.72,-1.711 11.67,-5.117 2.95,-3.418 4.43,-8.066 4.43,-13.945 0,-6.426 -1.34,-13.047 -4.03,-19.863 -2.41,-7.227 -6.57,-15.391 -12.47,-24.485 21.33,23.946 37.36,40.391 48.1,49.356 11.4,9.367 20.4,14.054 26.97,14.054 4.43,0 8.18,-1.816 11.28,-5.429 2.81,-3.614 4.22,-8.438 4.22,-14.465 0,-10.32 -6.78,-24.715 -20.33,-43.203 l -5.04,-7.031 c -7.51,-10.04 -12.57,-17.618 -15.19,-22.704 -2.62,-5.089 -3.93,-9.043 -3.93,-11.847 0,-2.547 0.54,-4.422 1.61,-5.633 1.08,-1.203 2.76,-1.809 5.04,-1.809 3.22,0 8.78,3.059 16.7,9.16 7.92,6.106 17.18,14.797 27.79,26.067 L 2520.39,533 c 4.3,4.824 6.91,7.246 7.85,7.246 0.94,-0.273 1.55,-0.535 1.82,-0.808 l 0.8,-1.204 c 0,-2.011 -5.98,-9.199 -17.91,-21.543 l -2.42,-2.41 c -11.27,-11.672 -20.76,-20.363 -28.48,-26.066 -7.71,-5.703 -13.58,-8.555 -17.62,-8.555 -5.77,0 -10.49,2.649 -14.19,7.93 -3.69,5.293 -5.53,12.363 -5.53,21.203 0,6.023 1.65,12.586 4.93,19.687 3.29,7.098 10.44,17.411 21.44,30.946 l 6.23,7.637 c 3.9,4.816 6.85,8.839 8.86,12.05 2.01,3.215 3.03,5.696 3.03,7.434 0,1.738 -0.27,2.879 -0.81,3.418 -0.54,0.527 -1.81,0.937 -3.83,1.199 -6.43,0 -19.15,-9.539 -38.13,-28.633 -19,-19.082 -41.57,-45.234 -67.74,-78.445 l -28.78,-2.813"
         style="fill:#ffffff;fill-opacity:1;fill-rule:nonzero;stroke:none"
         id="path36" />
      <path
         d="m 2563.26,572.043 c -8.32,-8.32 -16.17,-16.699 -23.54,-25.156 -7.92,-8.992 -12.69,-13.555 -14.3,-13.692 l -1.2,0.207 -0.41,1.004 c 0,2.949 8.08,12.715 24.26,29.289 16.17,16.571 27.54,29.891 34.12,39.95 l 17.91,26.777 h -19.92 l 3.44,5.832 20.3,-0.117 25.11,40.078 26.75,1.902 -26.38,-41.863 h 47.18 l -3.21,-5.832 h -47.62 l -61.68,-98.426 c -6.44,-10.469 -11.28,-18.887 -14.49,-25.266 -3.22,-6.375 -4.83,-10.898 -4.83,-13.582 0,-2.148 0.7,-3.996 2.11,-5.539 1.41,-1.543 3.05,-2.312 4.93,-2.312 4.83,0 10.67,2.48 17.52,7.449 6.83,4.961 17.1,14.492 30.79,28.574 1.34,1.348 2.88,2.95 4.63,4.836 1.73,1.875 3.62,4.024 5.63,6.446 4.3,4.824 7.18,7.371 8.65,7.644 l 1.62,-0.605 0.81,-1.407 c 0,-1.347 -1.15,-3.386 -3.43,-6.14 -2.28,-2.754 -7.44,-8.293 -15.5,-16.602 -13.55,-13.828 -23.95,-23.254 -31.19,-28.281 -7.25,-5.031 -13.62,-7.551 -19.12,-7.551 -6.72,0 -12.12,2.344 -16.21,7.043 -4.1,4.695 -6.14,11.004 -6.14,18.926 0,10.457 9.53,30.059 28.59,58.769 l 4.82,7.645"
         style="fill:#ffffff;fill-opacity:1;fill-rule:nonzero;stroke:none"
         id="path38" />
      <path
         d="m 2637.94,491.535 c 0,4.563 1.75,8.86 5.23,12.883 3.49,4.023 7.39,6.035 11.68,6.035 3.22,0 5.97,-1.144 8.26,-3.418 2.27,-2.285 3.41,-5.097 3.41,-8.457 0,-4.562 -1.74,-8.859 -5.23,-12.883 -3.22,-4.023 -6.97,-6.035 -11.27,-6.035 -3.36,0 -6.24,1.145 -8.65,3.418 -2.29,2.551 -3.43,5.371 -3.43,8.457"
         style="fill:#ffffff;fill-opacity:1;fill-rule:nonzero;stroke:none"
         id="path40" />
      <path
         d="m 2650.05,375.77 -26.81,-2.989 120.37,203.297 -33.01,-35.43 c -1.88,-2.285 -3.82,-4.23 -5.83,-5.839 -1.49,-1.075 -2.69,-1.739 -3.63,-2.012 -0.93,0 -1.54,0.137 -1.81,0.398 l -0.61,1.211 c 4.17,4.824 7.93,9.121 11.3,12.871 4.83,5.5 10.81,12.2 17.94,20.11 19.35,21.316 37.36,45.047 54.03,71.199 l 23.84,37.707 24.66,1.875 -88.14,-143.73 c 22.29,24.414 38.87,41.238 49.75,50.496 5.5,4.562 10.33,7.949 14.49,10.156 4.16,2.219 7.92,3.32 11.28,3.32 4.56,0 8.29,-1.855 11.18,-5.566 2.88,-3.711 4.33,-8.68 4.33,-14.891 0,-10.129 -6.85,-24.64 -20.53,-43.547 l -5.03,-6.992 c -7.52,-10.379 -12.55,-17.996 -15.1,-22.851 -2.54,-4.852 -3.82,-8.68 -3.82,-11.473 0,-2.531 0.53,-4.395 1.61,-5.598 1.07,-1.199 2.75,-1.797 5.03,-1.797 3.22,0 8.79,3.059 16.71,9.16 7.92,6.106 17.17,14.797 27.77,26.067 L 2851.09,533 c 4.3,4.824 6.91,7.246 7.86,7.246 l 1.61,-0.605 0.59,-1.407 c 0,-1.074 -1.2,-3.222 -3.62,-6.445 l -16.3,-17.508 c -11.27,-11.672 -20.76,-20.363 -28.48,-26.066 -7.72,-5.703 -13.59,-8.555 -17.61,-8.555 -5.77,0 -10.5,2.649 -14.19,7.949 -3.69,5.305 -5.54,12.383 -5.54,21.231 0,6.047 1.64,12.617 4.93,19.726 3.29,7.122 10.43,17.442 21.44,30.997 l 6.24,7.656 c 3.89,4.824 6.84,8.859 8.86,12.07 2.01,3.223 3.01,5.703 3.01,7.453 0,1.738 -0.47,3.016 -1.4,3.828 -0.68,0.801 -1.75,1.2 -3.23,1.2 -7.64,0 -23.06,-12.176 -46.28,-36.532 -23.2,-24.367 -44.73,-53.457 -64.59,-87.277 l -54.34,-92.191"
         style="fill:#ffffff;fill-opacity:1;fill-rule:nonzero;stroke:none"
         id="path42" />
      <path
         d="m 2893.16,572.043 -22.95,-25.359 c -7.92,-9.258 -12.6,-13.887 -14.08,-13.887 l -1.41,0.398 -0.61,1.211 c 0,1.074 0.68,2.559 2.01,4.434 l 7.43,9.269 13.06,14.305 c 8.71,9.406 16.21,17.793 22.5,25.188 7.24,8.328 11.65,13.699 13.26,16.121 l 81.42,126.132 26.77,3.614 -127,-201.473 c -7.78,-12.219 -13.35,-21.476 -16.7,-27.785 -2.28,-4.824 -3.42,-8.516 -3.42,-11.063 0,-2.011 0.67,-3.898 2.01,-5.636 1.21,-1.211 3.02,-1.953 5.44,-2.215 4.82,0 10.39,2.109 16.7,6.336 6.31,4.23 17.24,14.121 32.81,29.687 l 10.87,11.68 c 4.02,4.824 6.71,7.246 8.05,7.246 l 1.61,-0.605 0.81,-1.407 c 0,-1.347 -1.14,-3.386 -3.43,-6.14 -2.27,-2.754 -7.44,-8.293 -15.5,-16.602 -13.55,-13.828 -23.94,-23.254 -31.19,-28.281 -7.24,-5.031 -13.62,-7.551 -19.12,-7.551 -6.72,0 -12.12,2.344 -16.21,7.043 -4.09,4.695 -6.13,11.004 -6.13,18.926 0,10.867 9.92,31.258 29.78,61.18 l 3.22,5.234"
         style="fill:#ffffff;fill-opacity:1;fill-rule:nonzero;stroke:none"
         id="path44" />
      <path
         d="m 1971.66,1138.49 c -15.78,-18.47 -35.16,-45.56 -58.11,-81.24 l -11.85,-18.16 c -25.1,-39 -45.29,-65.953 -60.59,-80.863 -9.06,-8.664 -18.73,-15.391 -29.06,-20.168 -10.31,-4.774 -20.27,-7.168 -29.8,-7.168 -17.6,0 -31.59,6.437 -41.98,19.308 -10.39,12.871 -15.58,30.457 -15.58,52.761 0,26.38 6.7,52.43 20.08,78.18 5.87,11.29 12.85,22 20.78,32.19 12.83,-8.61 24.78,-15.04 35.74,-18.98 12.36,-4.46 24.73,-6.71 37.03,-6.71 14.98,0 29.77,3.11 44.39,9.4 14.67,6.29 28.05,15.41 40.24,27.35 10.23,9.81 18.05,20.11 23.4,30.87 5.35,10.75 8.36,21.42 9.02,31.97 0.37,5.82 -0.14,11.27 -1.37,16.45 0,0 0.18,0 0.28,0 13.49,0 25.74,-1.54 36.7,-4.57 10.95,-3.08 20.78,-7.67 29.45,-13.79 -17.34,-13.26 -33.59,-28.85 -48.77,-46.83 z m -22.19,49.11 c -0.54,-8.71 -3.2,-17.13 -7.93,-25.21 -4.74,-8.05 -12.07,-16.33 -21.93,-24.78 -13.05,-11.53 -27.87,-20.44 -44.61,-26.76 -16.72,-6.35 -33.81,-9.48 -51.33,-9.53 -10.06,-0.01 -19.8,1.72 -29.26,5.2 -7.71,2.82 -15.82,7.07 -24.21,12.59 9.08,10.85 19.39,21.1 30.95,30.66 20.67,17.07 44.42,30.32 71.31,39.77 24.86,8.71 50.04,13.35 75.55,14.01 1.33,-4.84 1.83,-10.14 1.46,-15.95 z m -200.25,-52.22 c -2.42,2.42 -5.24,5.53 -8.42,9.32 29.98,29.47 57.97,51.66 83.07,66.15 25.13,14.51 49,22.15 71.27,22.72 17.95,0.47 31.7,-3.42 41.32,-11.72 4.01,-3.43 7.02,-7.44 9.18,-11.94 -25.6,-1.44 -51.28,-6.66 -77.09,-15.78 -30.66,-10.84 -59.51,-26.24 -86.6,-46.17 -6.77,-5 -13.2,-10.19 -19.24,-15.55 -1.73,-1.31 -3.47,-2.63 -5.21,-3.94 -3.12,2.2 -5.88,4.49 -8.28,6.91 z m 326.25,73.5 c 0,0.89 -0.14,1.5 -0.37,1.82 -0.28,0.32 -0.76,0.6 -1.55,0.85 -2.03,0 -6.11,-1.36 -12.22,-4.1 -6.13,-2.76 -14.28,-6.75 -24.47,-12 -10.71,5.1 -22.31,8.86 -34.79,11.28 -12.48,2.42 -26.52,3.63 -42.07,3.63 -2.66,0 -5.33,-0.07 -8.01,-0.17 -3.24,8.35 -8.75,15.78 -16.7,22.24 -14.59,11.86 -33.65,17.39 -57.24,16.72 -24.36,-0.68 -48.97,-8.47 -73.52,-23.11 -24.53,-14.64 -49.59,-36.5 -74.43,-65.34 -9.92,17.07 -15.82,36.64 -17.48,58.75 -1.62,22.12 -3.11,33.11 -4.92,33.04 -2.07,-0.35 -3.56,-1.25 -4.46,-2.75 -0.88,-1.49 -1.44,-3.74 -1.68,-6.8 -0.93,-12.14 0.78,-26.59 5.24,-43.46 4.47,-16.85 10.74,-31.71 18.69,-44.53 -15.24,-19.89 -29.63,-41.14 -43.03,-63.77 -14.04,-23.93 -27.93,-50.84 -41.31,-80.58 6.96,25.84 12.56,51.32 16.76,76.36 4.18,25.02 6.74,48.73 7.5,71.01 1.04,29.87 -3.2,52.8 -13.48,68.68 -10.23,15.89 -25.43,23.44 -45.86,22.83 -10.52,-0.32 -21.48,-3.04 -32.87,-8.14 -11.34,-5.1 -22.15,-12.13 -32.32,-21.04 -10.2,-8.9 -18.24,-19.14 -24.16,-30.75 -5.9,-11.57 -8.99,-23.22 -9.28,-34.98 -0.35,-14.71 3.54,-26.61 11.49,-35.71 7.95,-9.12 18.43,-13.7 31.38,-13.65 6.74,0.02 13.13,1.38 19.18,4.13 6.04,2.73 11.99,6.82 17.93,12.32 11.56,11.25 17.54,21.32 17.78,30.08 -0.22,0.58 -0.47,1.14 -0.73,1.72 -0.47,0.56 -1.11,0.85 -1.87,0.85 -0.76,-0.17 -2.23,-2.19 -4.36,-6.1 -12.13,-21.08 -25.41,-31.57 -40.43,-31.64 -9.16,-0.05 -16.44,4.3 -21.81,13.01 -5.36,8.75 -7.89,20.47 -7.45,35.27 0.65,21.04 8.25,39.09 22.62,54.32 14.38,15.25 30.76,23.2 48.85,23.71 13.59,0.37 23.65,-4.82 30.27,-15.68 6.64,-10.86 9.36,-26.3 8.48,-46.28 -1.02,-23.17 -6.35,-48.08 -15.74,-74.47 -9.4,-26.41 -21.7,-51.29 -37.01,-74.51 -18.09,-27.5 -37.09,-47.776 -57.74,-61.049 -10.37,-6.707 -20.98,-11.532 -31.89,-14.481 -10.88,-2.961 -22.5,-4.269 -34.83,-3.945 -29.18,0.762 -54.35,11.445 -75.15,31.746 -20.77,20.309 -31.94,44.699 -32.97,73.499 -0.74,20.97 5.68,38.49 19.06,52.72 13.36,14.23 30.08,21.53 49.79,21.68 18.34,0.17 33.45,-6.22 45.52,-19.27 12.07,-13.04 18.17,-29.57 18.64,-49.4 0.21,-9.7 -1.33,-18.49 -4.65,-26.32 -3.28,-7.83 -7.87,-13.53 -13.79,-17.11 -1.82,-1.22 -4.22,-2.45 -7.21,-3.66 -3.92,-2.03 -5.86,-3.76 -5.78,-5.15 0.04,-0.99 0.27,-1.65 0.66,-2.02 0.39,-0.35 1.35,-0.52 2.87,-0.55 10.38,-0.16 20.73,7.12 31.37,21.98 10.67,14.86 15.86,31.18 15.63,48.85 -0.28,19.61 -6.29,35.92 -18.3,48.75 -12.04,12.88 -27.33,19.12 -46.06,18.91 -28.28,-0.32 -52.87,-11.61 -73.08,-33.49 -20.24,-21.91 -29.81,-47.78 -28.36,-77.98 1.36,-28.59 11.89,-51.869 30.91,-70.138 19.05,-18.262 42.93,-27.949 71.33,-28.77 27.6,-0.801 56.21,8.086 86.49,27.215 30.29,19.133 57.11,45.423 81.32,79.033 10.75,15.3 20.2,32.31 28.48,50.98 4.36,9.69 8.3,19.61 11.92,29.71 3.61,10.09 6.77,20.31 9.55,30.66 -0.45,-13.37 -1.59,-27.46 -3.42,-42.28 -1.84,-14.81 -4.06,-29.55 -6.7,-44.18 -5.27,-28.84 -11.76,-54.09 -19.77,-75.72 -8.71,-10.359 -15.54,-20.359 -20.5,-29.98 -4.98,-9.637 -7.23,-17.157 -6.8,-22.606 0.21,-2.871 1.29,-5.324 3.2,-7.394 1.94,-2.051 4.14,-3.125 6.68,-3.184 5.02,-0.156 9.55,4.199 13.67,13.156 4.1,8.953 7.43,21.875 10.16,38.856 11.33,28.492 25.57,56.012 42.58,82.612 17.01,26.6 36.38,51.77 57.97,75.52 2.46,-2.69 4.92,-5.4 7.4,-8.12 2.73,-2.55 5.47,-5.12 8.2,-7.7 -1.19,-1.4 -2.3,-2.82 -3.47,-4.23 -11.94,-12.43 -22.17,-25.72 -30.55,-39.94 -15.31,-25.95 -22.95,-51.66 -22.95,-77.15 0,-23.578 7.13,-42.562 21.41,-56.969 14.27,-14.394 33.06,-21.601 56.38,-21.601 24.08,0 46.62,8.215 67.58,24.601 20.96,16.407 45.59,46.231 73.89,89.489 l 19.49,30.24 c 40.27,61.59 71.17,99.18 92.73,112.78 5.73,-5.99 9.77,-11.79 12.13,-17.39 2.35,-5.61 3.54,-11.92 3.54,-18.93 0,-18.98 -5.3,-35.01 -15.88,-48.08 -10.57,-13.06 -23.44,-19.59 -38.59,-19.59 -0.79,0.13 -2.06,0.51 -3.83,1.15 -0.51,0.12 -1.62,0.32 -3.36,0.57 -1.72,0.26 -3.36,0.58 -4.87,0.96 -1.28,0 -2.55,0 -3.82,0 -3.97,0 -7.04,-0.73 -9.28,-2.19 -2.23,-1.47 -3.34,-3.48 -3.34,-6.03 0,-2.55 0.7,-4.42 2.11,-5.63 1.39,-1.22 3.44,-1.82 6.11,-1.82 2.54,0 5.92,0.38 10.12,1.14 l 14.55,3.06 c 12.09,-1.53 21.6,-6.56 28.48,-15.1 6.89,-8.53 10.31,-19.25 10.31,-32.12 0,-10.96 -2.93,-22.423 -8.77,-34.403 -5.88,-11.985 -13.4,-22.051 -22.58,-30.188 -6.87,-6.133 -13.79,-10.75 -20.74,-13.875 -6.95,-3.125 -13.87,-4.687 -20.74,-4.687 -11.21,0 -20,2.519 -26.37,7.558 -6.37,5.028 -9.57,11.817 -9.57,20.352 0,9.687 2.83,18.926 8.51,27.723 5.67,8.79 13.79,16.5 24.36,23.12 4.73,3.06 10.02,5.81 15.88,8.23 5.86,2.42 8.79,4.01 8.79,4.77 -0.26,1.16 -0.57,1.92 -0.94,2.3 -0.39,0.38 -0.74,0.63 -1.05,0.76 -0.34,0.13 -0.63,0.25 -0.88,0.39 -2.42,0 -6.51,-0.96 -12.23,-2.87 -6.25,-2.29 -11.68,-4.72 -16.25,-7.27 -10.98,-6.11 -19.32,-13.7 -25.04,-22.739 -5.72,-9.055 -8.59,-18.672 -8.59,-28.867 0,-14.016 4.96,-25.422 14.9,-34.219 9.96,-8.789 22.95,-13.195 39,-13.195 12.37,0 23.66,2.168 33.93,6.504 10.25,4.336 19.9,10.832 28.96,19.504 17.84,17.449 26.76,37.332 26.76,59.632 0,15.43 -5.23,28.68 -15.68,39.76 -10.45,11.1 -24.79,18.74 -43.01,22.94 22.81,5.35 40.53,14.21 53.15,26.57 12.61,12.37 18.92,26.7 18.92,43.01 0,10.46 -2.58,20.01 -7.75,28.68 -5.16,8.67 -12.5,15.74 -22.07,21.21 6.38,3.46 13.51,6.81 21.4,10.07 7.91,3.27 11.86,5.78 11.86,7.57"
         style="fill:#ffffff;fill-opacity:1;fill-rule:nonzero;stroke:none"
         id="path46" />
      <path
         d="m 1424.32,1081.33 c 0,14.66 1.13,29.07 3.28,43.13 -2.31,0.31 -4.65,0.49 -7.07,0.53 -2.17,-14.24 -3.28,-28.83 -3.28,-43.66 0,-42.91 9.41,-83.631 26.19,-120.31 2.71,-0.442 5.45,-0.782 8.22,-1.028 -17.5,36.817 -27.34,77.948 -27.34,121.338"
         style="fill:#ffffff;fill-opacity:1;fill-rule:nonzero;stroke:none"
         id="path48" />
      <path
         d="m 1979.34,1161.2 c 1.89,1.97 3.8,3.89 5.72,5.76 -2.91,9.41 -6.27,18.62 -10.08,27.58 -2.66,0.45 -5.45,0.76 -8.26,1.06 4.92,-11.1 9.14,-22.59 12.62,-34.4"
         style="fill:#ffffff;fill-opacity:1;fill-rule:nonzero;stroke:none"
         id="path50" />
      <path
         d="m 1996.99,1058.64 c -2.19,0.77 -4.49,1.36 -6.97,1.77 -3.07,-41.77 -15.18,-81.082 -34.47,-115.894 2.85,0.027 5.72,0.379 8.63,1.062 18.16,34.231 29.67,72.502 32.81,113.062"
         style="fill:#ffffff;fill-opacity:1;fill-rule:nonzero;stroke:none"
         id="path52" />
      <path
         d="m 1997.83,1085.85 c -0.27,18.67 -2.28,36.93 -5.94,54.59 -1.91,-2.28 -3.86,-4.67 -5.85,-7.17 2.94,-15.95 4.6,-32.38 4.76,-49.16 2.42,0.35 4.77,0.95 7.03,1.74"
         style="fill:#ffffff;fill-opacity:1;fill-rule:nonzero;stroke:none"
         id="path54" />
      <path
         d="m 1433.79,1153.97 c 32.17,121.11 142.71,210.64 273.83,210.64 106.87,0 200.09,-59.53 248.32,-147.18 0.19,0 0.39,0.02 0.58,0.02 2.56,0 5.02,-0.07 7.52,-0.16 -48.84,91.78 -145.45,154.41 -256.42,154.41 -135.22,0 -249.14,-92.89 -281.29,-218.21 2.44,0.29 4.96,0.37 7.46,0.48"
         style="fill:#ffffff;fill-opacity:1;fill-rule:nonzero;stroke:none"
         id="path56" />
      <path
         d="m 1940.53,920.395 c -51.17,-73.848 -136.49,-122.344 -232.91,-122.344 -101.51,0 -190.65,53.672 -240.69,134.082 -2.54,-0.488 -5.07,-0.91 -7.59,-1.242 50.97,-83.828 143.18,-139.93 248.28,-139.93 99.68,0 187.81,50.535 240.11,127.332 -2.48,0.566 -4.88,1.27 -7.2,2.102"
         style="fill:#ffffff;fill-opacity:1;fill-rule:nonzero;stroke:none"
         id="path58" />
      <path
         d="m 1129.71,372.559 -14.78,-0.329 c -5.75,-0.109 -8.11,-0.761 -9.58,-2.859 -1.01,-1.32 -1.46,-2.531 -1.7,-3.191 -0.22,-0.77 -0.45,-1.211 -1.12,-1.211 -0.67,0 -0.9,0.551 -0.9,1.551 0,1.531 1.91,10.55 2.14,11.32 0.22,1.219 0.57,1.762 1.12,1.762 0.79,0 1.81,-0.774 4.29,-1.09 2.93,-0.332 6.65,-0.453 9.92,-0.453 h 40.27 c 3.15,0 5.29,0.222 6.75,0.453 1.59,0.207 2.38,0.437 2.71,0.437 0.68,0 0.79,-0.558 0.79,-1.98 0,-1.989 -0.23,-8.918 -0.23,-11.34 -0.1,-0.988 -0.33,-1.539 -0.89,-1.539 -0.79,0 -1.02,0.441 -1.14,1.871 l -0.1,1 c -0.23,2.41 -2.83,5.269 -11.73,5.391 l -12.52,0.207 v -37.84 c 0,-8.578 0.12,-15.957 0.56,-20.028 0.35,-2.64 0.9,-4.39 3.84,-4.832 1.35,-0.23 3.61,-0.339 5.07,-0.339 1.13,0 1.58,-0.54 1.58,-0.981 0,-0.668 -0.79,-1 -1.91,-1 -6.54,0 -13.19,0.332 -16.02,0.332 -2.25,0 -9.02,-0.332 -12.97,-0.332 -1.24,0 -1.91,0.332 -1.91,1 0,0.441 0.33,0.981 1.57,0.981 1.47,0 2.71,0.109 3.5,0.339 2.03,0.442 2.6,2.192 2.94,4.95 0.45,3.953 0.45,11.332 0.45,19.91 v 37.84"
         style="fill:#ffffff;fill-opacity:1;fill-rule:nonzero;stroke:none"
         id="path60" />
      <path
         d="m 1202.19,343.961 c 0,-0.992 0.22,-1.32 0.9,-1.652 2.14,-0.661 5.07,-0.879 7.55,-0.879 3.95,0 5.31,0.332 7,1.539 3.04,2.09 6.42,6.16 6.42,13.859 0,13.203 -9.25,16.613 -15.1,16.613 -2.49,0 -4.86,-0.113 -5.87,-0.32 -0.68,-0.23 -0.9,-0.562 -0.9,-1.332 z m -12.63,7.258 c 0,14.191 0,16.832 -0.12,19.801 -0.22,3.191 -1.12,4.191 -4.28,5.07 -0.78,0.211 -2.48,0.32 -3.95,0.32 -1.01,0 -1.69,0.328 -1.69,1 0,0.649 0.79,0.871 2.26,0.871 5.18,0 11.5,-0.222 13.53,-0.222 3.38,0 12.4,0.222 15.45,0.222 6.31,0 13.53,-0.543 18.83,-3.961 2.82,-1.871 6.99,-6.601 6.99,-12.871 0,-6.929 -4.06,-13.09 -13.76,-20.687 8.8,-10.551 15.79,-19.032 21.77,-24.864 5.52,-5.386 9.01,-5.828 10.6,-6.148 1.01,-0.23 1.58,-0.23 2.37,-0.23 0.78,0 1.24,-0.54 1.24,-0.981 0,-0.769 -0.68,-1 -1.92,-1 h -9.48 c -5.52,0 -8.23,0.563 -10.82,1.883 -4.29,2.09 -8.01,6.476 -13.53,13.75 -3.95,5.058 -8.12,11.328 -9.36,12.758 -0.56,0.55 -1.13,0.66 -1.81,0.66 l -8.9,0.219 c -0.45,0 -0.79,-0.219 -0.79,-0.77 v -1.32 c 0,-8.688 0.11,-15.957 0.56,-19.91 0.34,-2.758 0.79,-4.508 3.83,-4.95 1.47,-0.23 3.62,-0.339 4.86,-0.339 0.79,0 1.24,-0.54 1.24,-0.981 0,-0.668 -0.8,-1 -2.04,-1 -5.75,0 -13.98,0.332 -15.44,0.332 -1.92,0 -8.24,-0.332 -12.18,-0.332 -1.24,0 -1.92,0.332 -1.92,1 0,0.441 0.34,0.981 1.58,0.981 1.46,0 2.59,0.109 3.49,0.339 2.03,0.442 2.6,2.192 2.94,4.95 0.45,3.953 0.45,11.332 0.45,19.91 v 16.5"
         style="fill:#ffffff;fill-opacity:1;fill-rule:nonzero;stroke:none"
         id="path62" />
      <path
         d="m 1305.3,336.262 c 0.46,0 0.57,0.218 0.46,0.547 l -9.36,23.761 c -0.11,0.328 -0.23,0.879 -0.45,0.879 -0.34,0 -0.45,-0.551 -0.57,-0.879 l -9.58,-23.648 c -0.22,-0.442 0,-0.66 0.33,-0.66 z m -21.19,-5.172 c -0.57,0 -0.68,-0.11 -0.91,-0.668 l -5.3,-12.543 c -1.01,-2.301 -1.46,-4.617 -1.46,-5.719 0,-1.648 0.9,-2.64 3.94,-2.64 h 1.48 c 1.24,0 1.46,-0.43 1.46,-0.981 0,-0.769 -0.57,-1 -1.58,-1 -3.27,0 -7.89,0.332 -11.06,0.332 -1,0 -6.3,-0.332 -11.49,-0.332 -1.24,0 -1.81,0.231 -1.81,1 0,0.551 0.34,0.981 1.13,0.981 0.9,0 2.03,0.109 2.94,0.109 4.5,0.672 6.2,3.531 8.23,8.25 l 25.93,58.859 c 1.13,2.653 1.92,3.742 2.93,3.742 1.47,0 1.92,-0.878 2.93,-2.968 2.37,-5.16 18.95,-43.453 25.26,-57.641 3.84,-8.48 6.66,-9.68 8.46,-10.012 1.46,-0.23 2.59,-0.339 3.72,-0.339 0.9,0 1.35,-0.329 1.35,-0.981 0,-0.769 -0.56,-1 -4.28,-1 -3.5,0 -10.72,0 -19.06,0.231 -1.8,0.101 -2.94,0.101 -2.94,0.769 0,0.551 0.24,0.883 1.24,0.981 0.69,0.109 1.36,0.992 0.91,2.089 l -7.66,18.813 c -0.23,0.558 -0.57,0.668 -1.02,0.668 h -23.34"
         style="fill:#ffffff;fill-opacity:1;fill-rule:nonzero;stroke:none"
         id="path64" />
      <path
         d="m 1368.96,340.879 c 0,-9.899 0.11,-17.051 0.22,-18.918 0.12,-2.32 0.34,-5.621 1.13,-6.609 1.24,-1.75 5.19,-3.743 12.97,-3.743 9.01,0 15.68,1.551 21.65,6.379 6.43,5.184 8.46,13.543 8.46,23.211 0,11.891 -4.85,19.59 -9.25,23.332 -9.13,7.918 -19.96,8.91 -27.74,8.91 -2.02,0 -5.3,-0.211 -6.09,-0.652 -0.91,-0.34 -1.24,-0.777 -1.24,-1.879 -0.11,-3.191 -0.11,-10.89 -0.11,-18.262 z m -13.31,10.34 c 0,14.191 0,16.832 -0.11,19.801 -0.23,3.191 -1.13,4.191 -4.29,5.07 -0.78,0.211 -2.48,0.32 -3.95,0.32 -1.01,0 -1.68,0.328 -1.68,1 0,0.649 0.79,0.871 2.25,0.871 5.19,0 11.51,-0.222 14.32,-0.222 3.04,0 10.15,0.222 16.13,0.222 12.4,0 29.09,0 39.91,-10.672 4.96,-4.828 9.37,-12.648 9.37,-23.757 0,-11.782 -5.2,-20.68 -10.83,-26.071 -4.51,-4.41 -15,-11.011 -33.26,-11.011 -3.62,0 -7.89,0.332 -11.85,0.558 -3.95,0.32 -7.55,0.543 -10.03,0.543 -1.13,0 -3.27,-0.101 -5.64,-0.101 -2.37,-0.122 -4.85,-0.231 -6.88,-0.231 -1.24,0 -1.91,0.332 -1.91,1 0,0.441 0.33,0.981 1.57,0.981 1.46,0 2.6,0.109 3.5,0.339 2.03,0.442 2.59,2.192 2.94,4.95 0.44,3.953 0.44,11.332 0.44,19.91 v 16.5"
         style="fill:#ffffff;fill-opacity:1;fill-rule:nonzero;stroke:none"
         id="path66" />
      <path
         d="m 1457.68,331.859 c 0,5.063 -0.91,7.039 -2.26,9.789 -0.68,1.43 -14.21,22.012 -17.71,26.961 -2.48,3.403 -4.51,5.602 -6.42,6.602 -1.24,0.648 -2.93,1.199 -4.18,1.199 -0.78,0 -1.47,0.328 -1.47,1 0,0.649 0.69,0.871 1.93,0.871 1.69,0 9.13,-0.222 12.4,-0.222 2.14,0 6.77,0.222 11.28,0.222 0.9,0 1.46,-0.222 1.46,-0.871 0,-0.781 -0.68,-0.781 -2.25,-1.219 -0.79,-0.222 -1.36,-0.66 -1.36,-1.421 0,-0.77 0.45,-1.879 1.24,-3.192 1.81,-2.867 14.78,-24.758 16.47,-27.398 1.24,2.199 13.31,22.218 14.77,25.082 1.02,2.09 1.47,3.738 1.47,4.949 0,0.879 -0.45,1.758 -2.15,2.09 -0.9,0.23 -1.8,0.328 -1.8,1.109 0,0.649 0.56,0.871 1.69,0.871 3.27,0 6.77,-0.222 9.7,-0.222 2.14,0 8.68,0.222 10.59,0.222 1.14,0 1.81,-0.222 1.81,-0.769 0,-0.653 -0.79,-1.102 -1.91,-1.102 -1.02,0 -2.83,-0.441 -4.29,-1.09 -2.14,-1 -3.05,-1.879 -5.19,-4.41 -3.27,-3.738 -17.48,-25.961 -19.28,-29.922 -1.47,-3.41 -1.24,-6.269 -1.24,-9.359 v -7.481 c 0,-1.527 0,-5.386 0.22,-9.339 0.23,-2.758 1.13,-4.508 4.06,-4.95 1.47,-0.23 3.62,-0.339 4.96,-0.339 1.14,0 1.69,-0.54 1.69,-0.981 0,-0.668 -0.79,-1 -2.13,-1 -6.21,0 -12.86,0.332 -15.57,0.332 -2.48,0 -9.13,-0.332 -12.85,-0.332 -1.35,0 -2.14,0.231 -2.14,1 0,0.441 0.45,0.981 1.57,0.981 1.36,0 2.6,0.109 3.5,0.339 2.03,0.442 2.82,2.192 3.04,4.95 0.35,3.953 0.35,7.812 0.35,9.339 v 7.711"
         style="fill:#ffffff;fill-opacity:1;fill-rule:nonzero;stroke:none"
         id="path68" />
      <path
         d="m 1512.79,316.461 c -9.8,8.027 -12.4,18.59 -12.4,27.609 0,6.379 2.15,17.379 11.62,25.629 7.22,6.16 16.69,9.903 31.46,9.903 6.2,0 9.92,-0.442 14.43,-0.981 3.72,-0.562 6.99,-1.211 9.92,-1.551 1.14,-0.101 1.47,-0.539 1.47,-1.101 0,-0.758 -0.23,-1.867 -0.45,-5.168 -0.23,-3.082 -0.23,-8.25 -0.33,-10.11 -0.12,-1.332 -0.46,-2.32 -1.36,-2.32 -0.79,0 -1.02,0.77 -1.02,1.981 -0.1,2.968 -1.34,6.269 -3.84,8.699 -3.37,3.179 -10.02,5.488 -19.16,5.488 -8.69,0 -14.2,-1.539 -18.72,-5.277 -7.33,-6.16 -9.14,-15.172 -9.14,-24.313 0,-22.219 17.6,-32.789 30.9,-32.789 8.8,0 13.64,0.668 17.6,4.949 1.69,1.879 3.04,4.512 3.38,6.27 0.22,1.441 0.45,1.883 1.24,1.883 0.67,0 1.12,-0.883 1.12,-1.653 0,-1.109 -1.12,-9.238 -2.14,-12.437 -0.45,-1.652 -0.9,-2.082 -2.58,-2.75 -3.96,-1.531 -11.51,-2.094 -17.93,-2.094 -13.54,0 -25.04,2.762 -34.07,10.133"
         style="fill:#ffffff;fill-opacity:1;fill-rule:nonzero;stroke:none"
         id="path70" />
      <path
         d="m 1590.82,351.219 c 0,14.191 0,16.832 -0.12,19.801 -0.22,3.191 -1.12,4.191 -4.28,5.07 -0.79,0.211 -2.48,0.32 -3.95,0.32 -1.01,0 -1.69,0.328 -1.69,1 0,0.649 0.79,0.871 2.26,0.871 5.18,0 12.4,-0.222 15,-0.222 2.36,0 8.68,0.222 12.62,0.222 1.36,0 2.04,-0.222 2.04,-0.871 0,-0.672 -0.57,-1 -1.81,-1 -1.02,0 -1.69,-0.109 -2.82,-0.32 -2.71,-0.442 -3.5,-1.77 -3.72,-5.07 -0.23,-2.969 -0.23,-5.61 -0.23,-19.801 V 333.84 c 0,-3.961 0.34,-8.481 0.34,-13.199 0,-5.289 -0.34,-11.219 -2.37,-16.512 -2.14,-5.719 -8.22,-12.32 -17.81,-17.82 -1.24,-0.661 -2.82,-1.43 -4.96,-2.418 -0.68,-0.332 -1.59,-0.442 -2.03,-0.442 -0.45,0 -0.8,0.442 -0.8,0.879 0,0.442 0.45,0.883 2.15,1.652 1.35,0.661 2.82,1.758 4.74,3.629 7.55,7.153 7.44,16.391 7.44,34.77 v 26.84"
         style="fill:#ffffff;fill-opacity:1;fill-rule:nonzero;stroke:none"
         id="path72" />
      <path
         d="m 1660.71,336.262 c 0.46,0 0.57,0.218 0.46,0.547 l -9.36,23.761 c -0.11,0.328 -0.23,0.879 -0.45,0.879 -0.34,0 -0.45,-0.551 -0.57,-0.879 l -9.58,-23.648 c -0.22,-0.442 0,-0.66 0.33,-0.66 z m -21.19,-5.172 c -0.56,0 -0.68,-0.11 -0.91,-0.668 l -5.3,-12.543 c -1.01,-2.301 -1.46,-4.617 -1.46,-5.719 0,-1.648 0.9,-2.64 3.94,-2.64 h 1.48 c 1.24,0 1.46,-0.43 1.46,-0.981 0,-0.769 -0.57,-1 -1.58,-1 -3.27,0 -7.89,0.332 -11.06,0.332 -1,0 -6.3,-0.332 -11.49,-0.332 -1.24,0 -1.81,0.231 -1.81,1 0,0.551 0.34,0.981 1.13,0.981 0.9,0 2.03,0.109 2.94,0.109 4.5,0.672 6.2,3.531 8.23,8.25 l 25.93,58.859 c 1.13,2.653 1.92,3.742 2.94,3.742 1.46,0 1.91,-0.878 2.92,-2.968 2.37,-5.16 18.95,-43.453 25.26,-57.641 3.84,-8.48 6.66,-9.68 8.46,-10.012 1.46,-0.23 2.59,-0.339 3.72,-0.339 0.9,0 1.35,-0.329 1.35,-0.981 0,-0.769 -0.56,-1 -4.28,-1 -3.5,0 -10.72,0 -19.06,0.231 -1.8,0.101 -2.94,0.101 -2.94,0.769 0,0.551 0.24,0.883 1.24,0.981 0.69,0.109 1.36,0.992 0.91,2.089 l -7.66,18.813 c -0.23,0.558 -0.57,0.668 -1.02,0.668 h -23.34"
         style="fill:#ffffff;fill-opacity:1;fill-rule:nonzero;stroke:none"
         id="path74" />
      <path
         d="m 1796.88,341.199 c 0,20.692 -12.75,33.449 -28.75,33.449 -11.06,0 -24.03,-5.718 -24.03,-28.82 0,-19.25 11.28,-34.437 30,-34.437 6.99,0 22.78,3.187 22.78,29.808 z m -67.44,1.77 c 0,15.953 11.51,36.633 41.61,36.633 25.03,0 40.6,-13.524 40.6,-34.981 0,-21.449 -16.02,-38.293 -41.61,-38.293 -28.87,0 -40.6,20.031 -40.6,36.641"
         style="fill:#ffffff;fill-opacity:1;fill-rule:nonzero;stroke:none"
         id="path76" />
      <path
         d="m 1843.91,340.879 c 0,-9.899 0.11,-17.051 0.22,-18.918 0.12,-2.32 0.34,-5.621 1.13,-6.609 1.24,-1.75 5.19,-3.743 12.97,-3.743 9.02,0 15.68,1.551 21.65,6.379 6.43,5.184 8.46,13.543 8.46,23.211 0,11.891 -4.85,19.59 -9.25,23.332 -9.13,7.918 -19.96,8.91 -27.74,8.91 -2.02,0 -5.3,-0.211 -6.09,-0.652 -0.9,-0.34 -1.24,-0.777 -1.24,-1.879 -0.11,-3.191 -0.11,-10.89 -0.11,-18.262 z m -13.3,10.34 c 0,14.191 0,16.832 -0.12,19.801 -0.23,3.191 -1.12,4.191 -4.29,5.07 -0.78,0.211 -2.48,0.32 -3.94,0.32 -1.02,0 -1.69,0.328 -1.69,1 0,0.649 0.79,0.871 2.25,0.871 5.19,0 11.51,-0.222 14.32,-0.222 3.05,0 10.15,0.222 16.13,0.222 12.4,0 29.09,0 39.91,-10.672 4.96,-4.828 9.37,-12.648 9.37,-23.757 0,-11.782 -5.19,-20.68 -10.83,-26.071 -4.51,-4.41 -15,-11.011 -33.26,-11.011 -3.62,0 -7.89,0.332 -11.85,0.558 -3.94,0.32 -7.55,0.543 -10.03,0.543 -1.13,0 -3.27,-0.101 -5.64,-0.101 -2.37,-0.122 -4.85,-0.231 -6.88,-0.231 -1.24,0 -1.91,0.332 -1.91,1 0,0.441 0.33,0.981 1.57,0.981 1.48,0 2.6,0.109 3.5,0.339 2.03,0.442 2.59,2.192 2.94,4.95 0.45,3.953 0.45,11.332 0.45,19.91 v 16.5"
         style="fill:#ffffff;fill-opacity:1;fill-rule:nonzero;stroke:none"
         id="path78" />
      <path
         d="m 1970.82,358.48 c 0,5.95 0,10.668 0,14.411 0,2.64 0,3.968 -1.7,3.968 -2.14,0 -10.59,-4.3 -13.08,-5.281 -0.56,-0.226 -1.13,-0.437 -1.58,-0.437 -0.33,0 -0.9,0.539 -0.9,1.211 0,0.648 0.57,1.207 1.13,1.527 0.46,0.223 22.11,14.082 26.05,16.941 1.02,0.668 2.03,1.442 2.93,1.442 1.02,0 1.35,-1.211 1.35,-2.321 0,-0.871 -0.67,-11.761 -0.67,-28.601 v -20.352 c 0,-10.566 0,-19.91 0.44,-24.758 0.35,-3.511 0.91,-5.16 4.52,-5.929 1.69,-0.34 6.54,-0.672 7.44,-0.672 0.46,0 1.01,-0.328 1.01,-1.09 0,-0.769 -0.55,-1 -1.8,-1 -8.57,0 -15.78,0.332 -18.83,0.332 -2.59,0 -12.06,-0.332 -19.28,-0.332 -1.24,0 -1.92,0.231 -1.92,1 0,0.762 0.46,1.09 0.91,1.09 1.24,0 6.99,0.332 9.01,0.769 3.61,0.774 4.18,2.321 4.51,5.832 0.46,4.848 0.68,14.192 0.57,24.758 l -0.11,17.492"
         style="fill:#ffffff;fill-opacity:1;fill-rule:nonzero;stroke:none"
         id="path80" />
      <path
         d="m 2063.28,362.328 c 0,-30.797 -27.63,-50.168 -41.61,-56.547 -0.57,-0.332 -1.12,-0.441 -2.03,-0.441 -0.45,0 -1.02,0.551 -1.02,1.109 0,0.762 0.79,1.422 1.36,1.86 11.73,6.941 29.32,24.972 29.32,50.941 0,19.469 -8.46,28.059 -17.14,28.059 -8.13,0 -13.54,-7.039 -13.54,-16.399 0,-16.82 11.17,-20.789 15,-20.789 3.95,0 6.2,0.66 7.67,1.32 1.24,0.661 1.81,1.207 2.25,1.207 0.45,0 0.9,-0.437 0.9,-0.988 0,-0.332 -0.33,-0.988 -0.55,-1.211 -3.27,-3.41 -9.14,-5.058 -14.89,-5.058 -16.24,0 -23,12 -23,21.23 0,14.859 11.5,25.641 28.86,25.641 18.38,0 28.42,-13.203 28.42,-29.934"
         style="fill:#ffffff;fill-opacity:1;fill-rule:nonzero;stroke:none"
         id="path82" />
      <path
         d="m 2073.42,337.578 c 0,21.461 17.37,44.442 41.83,54.012 1.02,0.441 1.93,0.672 2.48,0.672 0.69,0 1.36,-0.332 1.36,-1 0,-0.981 -1.58,-1.75 -2.82,-2.41 -13.19,-7.262 -28.75,-25.09 -28.75,-51.391 0,-12.871 5.75,-26.621 17.14,-26.621 7.78,0 14.21,5.73 14.21,18.488 0,15.293 -8.46,22 -15.9,22 -2.82,0 -4.29,-0.328 -5.87,-0.769 -0.9,-0.219 -1.91,-0.661 -2.48,-0.661 -0.45,0 -0.9,0.332 -0.9,1.102 0,0.77 0.57,1.211 1.24,1.648 3.38,2.313 8.46,3.961 14.66,3.961 15.9,0 23.01,-12.539 23.01,-22.328 0,-17.051 -12.97,-28.281 -29.44,-28.281 -17.36,0 -29.77,11.672 -29.77,31.578"
         style="fill:#ffffff;fill-opacity:1;fill-rule:nonzero;stroke:none"
         id="path84" />
      <path
         d="m 2143.24,337.578 c 0,21.461 17.38,44.442 41.84,54.012 1.01,0.441 1.92,0.672 2.48,0.672 0.68,0 1.36,-0.332 1.36,-1 0,-0.981 -1.59,-1.75 -2.83,-2.41 -13.19,-7.262 -28.75,-25.09 -28.75,-51.391 0,-12.871 5.76,-26.621 17.14,-26.621 7.79,0 14.21,5.73 14.21,18.488 0,15.293 -8.46,22 -15.9,22 -2.82,0 -4.28,-0.328 -5.87,-0.769 -0.89,-0.219 -1.91,-0.661 -2.48,-0.661 -0.45,0 -0.9,0.332 -0.9,1.102 0,0.77 0.57,1.211 1.25,1.648 3.37,2.313 8.45,3.961 14.65,3.961 15.9,0 23.01,-12.539 23.01,-22.328 0,-17.051 -12.97,-28.281 -29.43,-28.281 -17.37,0 -29.78,11.672 -29.78,31.578"
         style="fill:#ffffff;fill-opacity:1;fill-rule:nonzero;stroke:none"
         id="path86" />
      <path
         d="m 2232.12,343.961 c 0,-0.992 0.22,-1.32 0.9,-1.652 2.15,-0.661 5.08,-0.879 7.56,-0.879 3.94,0 5.3,0.332 6.99,1.539 3.05,2.09 6.42,6.16 6.42,13.859 0,13.203 -9.24,16.613 -15.1,16.613 -2.48,0 -4.86,-0.113 -5.87,-0.32 -0.68,-0.23 -0.9,-0.562 -0.9,-1.332 z m -12.63,7.258 c 0,14.191 0,16.832 -0.11,19.801 -0.23,3.191 -1.13,4.191 -4.29,5.07 -0.78,0.211 -2.48,0.32 -3.95,0.32 -1.01,0 -1.69,0.328 -1.69,1 0,0.649 0.79,0.871 2.26,0.871 5.18,0 11.5,-0.222 13.53,-0.222 3.38,0 12.41,0.222 15.45,0.222 6.31,0 13.53,-0.543 18.83,-3.961 2.82,-1.871 6.99,-6.601 6.99,-12.871 0,-6.929 -4.06,-13.09 -13.76,-20.687 8.8,-10.551 15.79,-19.032 21.77,-24.864 5.52,-5.386 9.02,-5.828 10.6,-6.148 1.01,-0.23 1.58,-0.23 2.37,-0.23 0.78,0 1.24,-0.54 1.24,-0.981 0,-0.769 -0.68,-1 -1.92,-1 h -9.48 c -5.51,0 -8.23,0.563 -10.82,1.883 -4.28,2.09 -8,6.476 -13.53,13.75 -3.95,5.058 -8.12,11.328 -9.36,12.758 -0.56,0.55 -1.13,0.66 -1.8,0.66 l -8.91,0.219 c -0.45,0 -0.79,-0.219 -0.79,-0.77 v -1.32 c 0,-8.688 0.12,-15.957 0.57,-19.91 0.33,-2.758 0.79,-4.508 3.82,-4.95 1.47,-0.23 3.62,-0.339 4.86,-0.339 0.79,0 1.24,-0.54 1.24,-0.981 0,-0.668 -0.79,-1 -2.03,-1 -5.76,0 -13.99,0.332 -15.45,0.332 -1.92,0 -8.24,-0.332 -12.18,-0.332 -1.24,0 -1.91,0.332 -1.91,1 0,0.441 0.33,0.981 1.57,0.981 1.47,0 2.6,0.109 3.49,0.339 2.03,0.442 2.6,2.192 2.94,4.95 0.45,3.953 0.45,11.332 0.45,19.91 v 16.5"
         style="fill:#ffffff;fill-opacity:1;fill-rule:nonzero;stroke:none"
         id="path88" />
      <path
         d="m 2293.86,314.578 c 0,2.762 2.03,6.711 6.87,6.711 3.84,0 6.89,-2.527 6.89,-6.367 0,-3.852 -2.71,-7.051 -6.99,-7.051 -4.74,0 -6.77,3.641 -6.77,6.707"
         style="fill:#ffffff;fill-opacity:1;fill-rule:nonzero;stroke:none"
         id="path90" />
      <path
         d="m 2099.49,1206.22 c 685.14,-60.66 1191.86,-276.685 1191.86,-533.872 0,-304.258 -709.1,-550.887 -1583.81,-550.887 -874.708,0 -1583.81,246.629 -1583.81,550.887 0,270.507 560.586,495.472 1299.75,542.042"
         style="fill:none;stroke:#ffffff;stroke-width:10;stroke-linecap:butt;stroke-linejoin:miter;stroke-miterlimit:10;stroke-dasharray:none;stroke-opacity:1"
         id="path92" />
    </g>
  </g>
</svg>
